
<svg version="1.1" xmlns="http://www.w3.org/2000/svg" xmlns:xlink="http://www.w3.org/1999/xlink">
    <!-- Generator: Sketch 51.2 (57519) - http://www.bohemiancoding.com/sketch -->
    <desc>Created with Sketch.</desc>
    <defs></defs>
    <g id="pulser" stroke="none" stroke-width="1" fill="none" fill-rule="evenodd" stroke-linecap="round" stroke-linejoin="round">
        <g id="pulser-2" stroke="#4A4A4A" stroke-width="0.6">
            <path d="M0.451823707,104.593857 L4.50293332,94.0401481 L0.451823707,104.593857 Z" id="Path"></path>
            <path d="M5.77978792,90.7137677 L6.66897519,88.3973134 L5.77978792,90.7137677 Z" id="Path"></path>
            <path d="M8.51846652,83.5791247 L9.40765379,81.2626705 L8.51846652,83.5791247 Z" id="Path"></path>
            <path d="M13.0746274,71.7097053 L13.9638124,69.393251 L13.0746274,71.7097053 Z" id="Path"></path>
            <path d="M14.5186575,67.947808 L15.4078448,65.6313537 L14.5186575,67.947808 Z" id="Path"></path>
            <path d="M19.0748184,56.0783727 L19.9640034,53.7619185 L19.0748184,56.0783727 Z" id="Path"></path>
            <path d="M20.9420923,51.2138617 L21.8312796,48.8974074 L20.9420923,51.2138617 Z" id="Path"></path>
            <path d="M24.7264475,41.3550983 L25.6156325,39.0386441 L24.7264475,41.3550983 Z" id="Path"></path>
            <path d="M26.2949647,37.2688929 L27.1841497,34.9524387 L26.2949647,37.2688929 Z" id="Path"></path>
            <path d="M29.4319901,29.0965069 L30.3211774,26.7800526 L29.4319901,29.0965069 Z" id="Path"></path>
            <path d="M30.9507134,25.1400247 L31.8398984,22.8235705 L30.9507134,25.1400247 Z" id="Path"></path>
            <path d="M32.4445375,21.2484019 L33.3337247,18.9319499 L32.4445375,21.2484019 Z" id="Path"></path>
            <path d="M34.2869167,16.4487525 L35.1761017,14.1322982 L34.2869167,16.4487525 Z" id="Path"></path>
            <path d="M35.8305369,12.4274087 L36.7197219,10.1109544 L35.8305369,12.4274087 Z" id="Path"></path>
            <path d="M38.7932813,4.70904724 L39.6824686,2.392593 L38.7932813,4.70904724 Z" id="Path"></path>
            <path d="M6.95726865,91.103506 L4.64503852,90.2127078 L6.95726865,91.103506 Z" id="Path"></path>
            <path d="M8.8245448,86.2389972 L6.51231467,85.3481765 L8.8245448,86.2389972 Z" id="Path"></path>
            <path d="M11.2395585,79.9475463 L8.92732835,79.0567481 L11.2395585,79.9475463 Z" id="Path"></path>
            <path d="M11.9698714,78.0449944 L9.6576413,77.1541737 L11.9698714,78.0449944 Z" id="Path"></path>
            <path d="M12.7001776,76.1424425 L10.3879475,75.2516218 L12.7001776,76.1424425 Z" id="Path"></path>
            <path d="M13.4304906,74.239868 L11.1182604,73.3490699 L13.4304906,74.239868 Z" id="Path"></path>
            <path d="M17.2895366,64.1865198 L14.9773065,63.2957217 L17.2895366,64.1865198 Z" id="Path"></path>
            <path d="M18.0364521,62.2406937 L15.7242219,61.3498956 L18.0364521,62.2406937 Z" id="Path"></path>
            <path d="M18.7833697,60.2948902 L16.4711396,59.4040695 L18.7833697,60.2948902 Z" id="Path"></path>
            <path d="M19.5302604,58.3491319 L17.2180325,57.4583111 L19.5302604,58.3491319 Z" id="Path"></path>
            <path d="M23.6133813,47.712029 L21.3011512,46.8212196 L23.6133813,47.712029 Z" id="Path"></path>
            <path d="M24.360299,45.7662097 L22.0480689,44.8753981 L24.360299,45.7662097 Z" id="Path"></path>
            <path d="M25.1071986,43.8204288 L22.7949685,42.9296194 L25.1071986,43.8204288 Z" id="Path"></path>
            <path d="M29.0160387,33.6373618 L26.7038085,32.7465502 L29.0160387,33.6373618 Z" id="Path"></path>
            <path d="M29.7380504,31.7564222 L27.4258202,30.8656105 L29.7380504,31.7564222 Z" id="Path"></path>
            <path d="M38.4271238,9.12018122 L36.1148959,8.22936953 L38.4271238,9.12018122 Z" id="Path"></path>
            <path d="M39.0993416,7.36896258 L36.7871115,6.47815089 L39.0993416,7.36896258 Z" id="Path"></path>
            <path d="M41.4147675,1.33695816 L39.1025373,0.44614647 L41.4147675,1.33695816 Z" id="Path"></path>
        </g>
    </g>
</svg>
