
<svg version="1.1" xmlns="http://www.w3.org/2000/svg" xmlns:xlink="http://www.w3.org/1999/xlink">
    <!-- Generator: Sketch 51.2 (57519) - http://www.bohemiancoding.com/sketch -->
    <desc>Created with Sketch.</desc>
    <defs></defs>
    <g id="pulser" stroke="none" stroke-width="1" fill="none" fill-rule="evenodd" stroke-linecap="round" stroke-linejoin="round">
        <g id="pulser-1" stroke="#4A4A4A" stroke-width="0.6">
            <path d="M0.946047296,218.644689 L7.82377998,209.5614 L0.946047296,218.644689 Z" id="Path"></path>
            <path d="M10.6963481,205.767645 L113.469874,70.0364969 L10.6963481,205.767645 Z" id="Path"></path>
            <path d="M120.124399,61.2479999 L121.621572,59.2706929 L120.124399,61.2479999 Z" id="Path"></path>
            <path d="M122.821873,57.6854864 L124.319046,55.7081817 L122.821873,57.6854864 Z" id="Path"></path>
            <path d="M126.408634,52.9485259 L127.905807,50.9712189 L126.408634,52.9485259 Z" id="Path"></path>
            <path d="M135.627466,40.7733692 L137.124662,38.7960622 L135.627466,40.7733692 Z" id="Path"></path>
            <path d="M138.384216,37.1325742 L139.881411,35.1552671 L138.384216,37.1325742 Z" id="Path"></path>
            <path d="M141.140965,33.4917768 L142.638161,31.5144698 L141.140965,33.4917768 Z" id="Path"></path>
            <path d="M147.543773,25.0357194 L149.040946,23.0584124 L147.543773,25.0357194 Z" id="Path"></path>
            <path d="M151.812311,19.398347 L153.309484,17.42104 L151.812311,19.398347 Z" id="Path"></path>
            <path d="M154.628336,15.6792478 L156.125532,13.7019408 L154.628336,15.6792478 Z" id="Path"></path>
            <path d="M157.385108,12.0384527 L158.882281,10.0611457 L157.385108,12.0384527 Z" id="Path"></path>
            <path d="M165.003239,1.97730476 L166.500434,0 L165.003239,1.97730476 Z" id="Path"></path>
            <path d="M110.506697,76.0031862 L108.533003,74.5032646 L110.506697,76.0031862 Z" id="Path"></path>
            <path d="M116.524148,68.0560492 L114.550454,66.5561299 L116.524148,68.0560492 Z" id="Path"></path>
            <path d="M117.739516,66.4509452 L115.765822,64.9510236 L117.739516,66.4509452 Z" id="Path"></path>
            <path d="M118.954839,64.8458931 L116.981122,63.3459715 L118.954839,64.8458931 Z" id="Path"></path>
            <path d="M120.170184,63.2407868 L118.19649,61.7408674 L120.170184,63.2407868 Z" id="Path"></path>
            <path d="M126.0987,55.4111038 L124.125005,53.9111822 L126.0987,55.4111038 Z" id="Path"></path>
            <path d="M130.278303,49.8911831 L128.304608,48.3912615 L130.278303,49.8911831 Z" id="Path"></path>
            <path d="M131.515876,48.2567415 L129.542182,46.7568199 L131.515876,48.2567415 Z" id="Path"></path>
            <path d="M132.75345,46.6223 L130.779755,45.1223784 L132.75345,46.6223 Z" id="Path"></path>
            <path d="M133.991023,44.9878584 L132.017329,43.4879368 L133.991023,44.9878584 Z" id="Path"></path>
            <path d="M135.228619,43.3533988 L133.254925,41.8534772 L135.228619,43.3533988 Z" id="Path"></path>
            <path d="M144.862446,30.6301696 L142.888752,29.130248 L144.862446,30.6301696 Z" id="Path"></path>
            <path d="M146.077814,29.0250633 L144.104097,27.5251439 L146.077814,29.0250633 Z" id="Path"></path>
            <path d="M147.293137,27.4199954 L145.319442,25.9200738 L147.293137,27.4199954 Z" id="Path"></path>
            <path d="M151.383827,22.0175083 L149.41011,20.5175867 L151.383827,22.0175083 Z" id="Path"></path>
            <path d="M161.106589,9.17682738 L159.132895,7.67690578 L161.106589,9.17682738 Z" id="Path"></path>
            <path d="M162.302184,7.59782099 L160.328489,6.09789938 L162.302184,7.59782099 Z" id="Path"></path>
            <path d="M163.497778,6.01881685 L161.524083,4.51889525 L163.497778,6.01881685 Z" id="Path"></path>
            <path d="M164.69335,4.4398646 L162.719633,2.93994526 L164.69335,4.4398646 Z" id="Path"></path>
        </g>
    </g>
</svg>
