<svg viewBox="0 0 634 438" version="1.1" xmlns="http://www.w3.org/2000/svg" xmlns:xlink="http://www.w3.org/1999/xlink">
    <!-- Generator: Sketch 51.2 (57519) - http://www.bohemiancoding.com/sketch -->
    <desc>Created with Sketch.</desc>
    <defs></defs>
    <g id="top-pulser" fill="none" fill-rule="evenodd" stroke-linecap="round" stroke-linejoin="round">
        <g transform="translate(175.000000, 215.000000)">
            <path d="M0.177153199,3.81631942 L457.389422,2.7133981 L0.177153199,3.81631942 Z" id="Path"></path>
            <path d="M458,5.42159265 L457.986938,0.00228101108 L458,5.42159265 Z" id="Path"></path>
        </g>
        <g transform="translate(175.000000, 138.000000)">
            <path d="M3.72712347,77.3593945 L0.8053357,80.7741057 L3.72712347,77.3593945 Z" id="Path"></path>
            <path d="M14.623727,65.1205201 L12.9825773,66.9796399 L14.623727,65.1205201 Z" id="Path"></path>
            <path d="M17.5646531,61.789018 L15.9235034,63.6481378 L17.5646531,61.789018 Z" id="Path"></path>
            <path d="M22.8031729,55.8547934 L21.1620233,57.7138906 L22.8031729,55.8547934 Z" id="Path"></path>
            <path d="M25.7900509,52.4712179 L24.1489012,54.3303377 L25.7900509,52.4712179 Z" id="Path"></path>
            <path d="M30.0635755,47.6301512 L28.4224259,49.4892484 L30.0635755,47.6301512 Z" id="Path"></path>
            <path d="M35.945412,40.9671471 L34.3042623,42.8262669 L35.945412,40.9671471 Z" id="Path"></path>
            <path d="M40.0810789,36.2822329 L38.4399293,38.1413301 L40.0810789,36.2822329 Z" id="Path"></path>
            <path d="M47.3414815,28.0575907 L45.7003319,29.9166992 L47.3414815,28.0575907 Z" id="Path"></path>
            <path d="M51.4771529,23.3726743 L49.8360033,25.2317828 L51.4771529,23.3726743 Z" id="Path"></path>
            <path d="M54.4640219,19.9891146 L52.8228722,21.8482231 L54.4640219,19.9891146 Z" id="Path"></path>
            <path d="M58.8294457,15.0439236 L57.188296,16.9030299 L58.8294457,15.0439236 Z" id="Path"></path>
            <path d="M66.04391,6.8713368 L64.4027603,8.73044531 L66.04391,6.8713368 Z" id="Path"></path>
            <path d="M69.0307564,3.48781097 L67.3896067,5.34691948 L69.0307564,3.48781097 Z" id="Path"></path>
            <path d="M72.0176703,0.104219718 L70.3765207,1.96332597 L72.0176703,0.104219718 Z" id="Path"></path>
            <path d="M12.6172846,69.2666054 L10.7615662,67.6224576 L12.6172846,69.2666054 Z" id="Path"></path>
            <path d="M19.4641162,61.5104433 L17.6084001,59.8662956 L19.4641162,61.5104433 Z" id="Path"></path>
            <path d="M20.7967148,60.0008787 L18.9409987,58.3567309 L20.7967148,60.0008787 Z" id="Path"></path>
            <path d="M28.0111656,51.8282873 L26.1554472,50.1841396 L28.0111656,51.8282873 Z" id="Path"></path>
            <path d="M32.3306421,46.9351472 L30.4749237,45.2909994 L32.3306421,46.9351472 Z" id="Path"></path>
            <path d="M33.7091924,45.3735092 L31.8534763,43.7293614 L33.7091924,45.3735092 Z" id="Path"></path>
            <path d="M37.9827171,40.5324424 L36.127001,38.8882947 L37.9827171,40.5324424 Z" id="Path"></path>
            <path d="M42.3481454,35.5872515 L40.4924293,33.9431037 L42.3481454,35.5872515 Z" id="Path"></path>
            <path d="M43.7037199,34.0516276 L41.8480038,32.4074865 L43.7037199,34.0516276 Z" id="Path"></path>
            <path d="M45.0592966,32.5160285 L43.2035782,30.8718807 L45.0592966,32.5160285 Z" id="Path"></path>
            <path d="M49.4247249,27.5708375 L47.5690066,25.9266897 L49.4247249,27.5708375 Z" id="Path"></path>
            <path d="M56.7770402,19.2420869 L54.9213106,17.5979368 L56.7770402,19.2420869 Z" id="Path"></path>
            <path d="M61.142464,14.2968936 L59.2867344,12.6527459 L61.142464,14.2968936 Z" id="Path"></path>
            <path d="M62.4750536,12.7873312 L60.6193239,11.1431835 L62.4750536,12.7873312 Z" id="Path"></path>
            <path d="M63.8076657,11.2777372 L61.951936,9.63358946 L63.8076657,11.2777372 Z" id="Path"></path>
        </g>
        <g transform="translate(175.000000, 184.000000)">
            <path d="M0.405254803,34.8104984 L10.9805603,32.109608 L0.405254803,34.8104984 Z" id="Path"></path>
            <path d="M14.5210177,31.2053853 L35.2197384,25.9190324 L14.5210177,31.2053853 Z" id="Path"></path>
            <path d="M39.7977964,26.0304216 L39.185829,23.6255012 L39.7977964,26.0304216 Z" id="Path"></path>
            <path d="M40.946448,24.4564646 L43.3469806,23.8433612 L40.946448,24.4564646 Z" id="Path"></path>
            <path d="M45.3826102,23.3234845 L47.7831474,22.7104037 L45.3826102,23.3234845 Z" id="Path"></path>
            <path d="M49.3818675,22.3020742 L51.7824024,21.6889933 L49.3818675,22.3020742 Z" id="Path"></path>
            <path d="M53.7172258,21.19486 L56.1177382,20.5817792 L53.7172258,21.19486 Z" id="Path"></path>
            <path d="M57.7500821,20.1648761 L60.1506171,19.5517952 L57.7500821,20.1648761 Z" id="Path"></path>
            <path d="M65.7485922,18.1221005 L68.1491271,17.5090197 L65.7485922,18.1221005 Z" id="Path"></path>
            <path d="M62.415463,20.253974 L61.8035002,17.8490536 L62.415463,20.253974 Z" id="Path"></path>
            <path d="M64.3982786,19.7475669 L63.7863158,17.3426465 L64.3982786,19.7475669 Z" id="Path"></path>
            <path d="M70.044291,18.3055984 L69.4323282,15.900678 L70.044291,18.3055984 Z" id="Path"></path>
            <path d="M80.4961478,15.6362498 L79.8841623,13.2313294 L80.4961478,15.6362498 Z" id="Path"></path>
            <path d="M92.7627684,12.5034073 L92.1508055,10.098487 L92.7627684,12.5034073 Z" id="Path"></path>
            <path d="M71.5626337,16.6372189 L73.9631687,16.024138 L71.5626337,16.6372189 Z" id="Path"></path>
            <path d="M75.8643682,15.5385783 L78.2649031,14.9254975 L75.8643682,15.5385783 Z" id="Path"></path>
            <path d="M81.9472878,13.9850175 L84.3478227,13.3719367 L81.9472878,13.9850175 Z" id="Path"></path>
            <path d="M88.0974101,12.4143095 L90.4979225,11.8012286 L88.0974101,12.4143095 Z" id="Path"></path>
            <path d="M94.314735,10.8264316 L96.7152699,10.2133508 L94.314735,10.8264316 Z" id="Path"></path>
            <path d="M98.5492443,9.7449609 L100.949779,9.13188005 L98.5492443,9.7449609 Z" id="Path"></path>
            <path d="M103.455893,8.49181489 L105.856427,7.87873403 L103.455893,8.49181489 Z" id="Path"></path>
            <path d="M108.020447,8.60665614 L107.408484,6.20173578 L108.020447,8.60665614 Z" id="Path"></path>
            <path d="M109.969661,8.10884523 L109.357698,5.70392487 L109.969661,8.10884523 Z" id="Path"></path>
            <path d="M111.885252,7.61960793 L111.273289,5.21468757 L111.885252,7.61960793 Z" id="Path"></path>
            <path d="M113.370038,5.95980203 L115.770573,5.34669861 L113.370038,5.95980203 Z" id="Path"></path>
            <path d="M119.889842,4.29467146 L122.290355,3.68156804 L119.889842,4.29467146 Z" id="Path"></path>
            <path d="M132.156486,1.16180642 L134.557021,0.54872557 L132.156486,1.16180642 Z" id="Path"></path>
            <path d="M127.82115,2.26904312 L130.221685,1.65596227 L127.82115,2.26904312 Z" id="Path"></path>
            <path d="M118.1362,6.02313393 L117.524238,3.61821357 L118.1362,6.02313393 Z" id="Path"></path>
            <path d="M124.487976,4.40091654 L123.87599,1.99601874 L124.487976,4.40091654 Z" id="Path"></path>
            <path d="M126.403566,3.91167924 L125.791603,1.50678144 L126.403566,3.91167924 Z" id="Path"></path>
            <path d="M86.542133,13.7785289 L85.9301475,11.3735859 L86.542133,13.7785289 Z" id="Path"></path>
            <path d="M18.9330893,31.3591688 L18.3211219,28.9542485 L18.9330893,31.3591688 Z" id="Path"></path>
        </g>
        <g transform="translate(175.000000, 218.000000)">
            <path d="M0.113060711,0.580161565 L10.0717122,3.65316926 L0.113060711,0.580161565 Z" id="Path"></path>
            <path d="M13.9671658,4.85521204 L131.945937,41.2606132 L13.9671658,4.85521204 Z" id="Path"></path>
            <path d="M138.859115,43.3938629 L141.226657,44.1244247 L138.859115,43.3938629 Z" id="Path"></path>
            <path d="M142.969151,44.6621029 L145.336693,45.3926874 L142.969151,44.6621029 Z" id="Path"></path>
            <path d="M147.012885,45.9099243 L149.380427,46.6404862 L147.012885,45.9099243 Z" id="Path"></path>
            <path d="M154.503772,48.2214149 L156.871314,48.9519767 L154.503772,48.2214149 Z" id="Path"></path>
            <path d="M158.481227,49.4487724 L160.848768,50.1793342 L158.481227,49.4487724 Z" id="Path"></path>
            <path d="M162.3261,50.6352021 L164.693642,51.365764 L162.3261,50.6352021 Z" id="Path"></path>
            <path d="M175.12023,54.5831694 L177.487772,55.3137313 L175.12023,54.5831694 Z" id="Path"></path>
            <path d="M179.097685,55.8105043 L181.465227,56.5410888 L179.097685,55.8105043 Z" id="Path"></path>
            <path d="M184.864973,57.5901603 L187.232537,58.3207221 L184.864973,57.5901603 Z" id="Path"></path>
            <path d="M189.04131,58.8788868 L191.408852,59.6094486 L189.04131,58.8788868 Z" id="Path"></path>
            <path d="M192.952486,60.0857578 L195.320028,60.8163423 L192.952486,60.0857578 Z" id="Path"></path>
            <path d="M199.581562,62.1313537 L201.949104,62.8619156 L199.581562,62.1313537 Z" id="Path"></path>
            <path d="M208.994863,65.0360704 L211.362405,65.7666323 L208.994863,65.0360704 Z" id="Path"></path>
            <path d="M215.226196,66.9589057 L217.593738,67.6894676 L215.226196,66.9589057 Z" id="Path"></path>
            <path d="M221.258669,68.8203719 L223.62621,69.5509564 L221.258669,68.8203719 Z" id="Path"></path>
            <path d="M116.552322,37.8089677 L117.281551,35.4371009 L116.552322,37.8089677 Z" id="Path"></path>
            <path d="M137.130336,44.158832 L137.859566,41.7869652 L137.130336,44.158832 Z" id="Path"></path>
            <path d="M150.95836,48.4258504 L151.687612,46.053961 L150.95836,48.4258504 Z" id="Path"></path>
            <path d="M152.880234,49.0188735 L153.609463,46.6470066 L152.880234,49.0188735 Z" id="Path"></path>
            <path d="M166.286394,53.1557083 L167.015646,50.7838415 L166.286394,53.1557083 Z" id="Path"></path>
            <path d="M168.020758,53.6908821 L168.749988,51.3190153 L168.020758,53.6908821 Z" id="Path"></path>
            <path d="M169.708233,54.2115936 L170.437463,51.8397268 L169.708233,54.2115936 Z" id="Path"></path>
            <path d="M171.395709,54.7323276 L172.124961,52.3604382 L171.395709,54.7323276 Z" id="Path"></path>
            <path d="M173.083207,55.2530391 L173.812436,52.8811723 L173.083207,55.2530391 Z" id="Path"></path>
            <path d="M183.208126,58.3773531 L183.937378,56.0054637 L183.208126,58.3773531 Z" id="Path"></path>
            <path d="M196.286178,62.4129065 L197.015408,60.0410397 L196.286178,62.4129065 Z" id="Path"></path>
            <path d="M198.067408,62.9625652 L198.79666,60.5906984 L198.067408,62.9625652 Z" id="Path"></path>
            <path d="M203.457988,64.6259585 L204.18724,62.2540917 L203.457988,64.6259585 Z" id="Path"></path>
            <path d="M205.286106,65.1900795 L206.015336,62.8182127 L205.286106,65.1900795 Z" id="Path"></path>
            <path d="M207.161092,65.7686629 L207.890344,63.3967735 L207.161092,65.7686629 Z" id="Path"></path>
            <path d="M213.114178,67.6056267 L213.84343,65.2337598 L213.114178,67.6056267 Z" id="Path"></path>
            <path d="M219.161019,69.4715377 L219.890271,67.0996708 L219.161019,69.4715377 Z" id="Path"></path>
        </g>
        <g transform="translate(175.000000, 218.000000)">
            <path d="M0.781600828,0.793960341 L3.56526061,3.98882612 L0.781600828,0.793960341 Z" id="Path"></path>
            <path d="M4.99233021,5.62672419 L6.6214041,7.49647075 L4.99233021,5.62672419 Z" id="Path"></path>
            <path d="M11.3326445,12.9036891 L12.9617184,14.7734356 L11.3326445,12.9036891 Z" id="Path"></path>
            <path d="M16.669464,19.0289022 L18.2985378,20.8986487 L16.669464,19.0289022 Z" id="Path"></path>
            <path d="M23.5115324,26.881743 L25.1406063,28.7514895 L23.5115324,26.881743 Z" id="Path"></path>
            <path d="M26.202748,29.9705442 L27.8318242,31.8402682 L26.202748,29.9705442 Z" id="Path"></path>
            <path d="M31.7220078,36.3051564 L33.3510839,38.174903 L31.7220078,36.3051564 Z" id="Path"></path>
            <path d="M34.5500677,39.5509901 L36.1791416,41.4207366 L34.5500677,39.5509901 Z" id="Path"></path>
            <path d="M37.1500553,42.5350804 L38.7791314,44.4048269 L37.1500553,42.5350804 Z" id="Path"></path>
            <path d="M41.2096801,47.1944317 L42.838754,49.0641782 L41.2096801,47.1944317 Z" id="Path"></path>
            <path d="M45.679831,52.324948 L47.3089049,54.1946946 L45.679831,52.324948 Z" id="Path"></path>
            <path d="M51.7464589,59.2878029 L53.3755373,61.1575269 L51.7464589,59.2878029 Z" id="Path"></path>
            <path d="M57.0376756,65.3606718 L58.6667315,67.2303958 L57.0376756,65.3606718 Z" id="Path"></path>
            <path d="M4.87374819,7.37768112 L6.74007621,5.74562664 L4.87374819,7.37768112 Z" id="Path"></path>
            <path d="M9.02460102,12.1417207 L10.8909268,10.5096662 L9.02460102,12.1417207 Z" id="Path"></path>
            <path d="M13.1298398,16.8534162 L14.9961656,15.2213842 L13.1298398,16.8534162 Z" id="Path"></path>
            <path d="M14.4526327,18.3716447 L16.3189608,16.7395902 L14.4526327,18.3716447 Z" id="Path"></path>
            <path d="M28.0911579,34.0249595 L29.9574836,32.392905 L28.0911579,34.0249595 Z" id="Path"></path>
            <path d="M29.4139508,35.5431655 L31.2802766,33.9111336 L29.4139508,35.5431655 Z" id="Path"></path>
            <path d="M38.8560091,46.3800966 L40.7223348,44.7480421 L38.8560091,46.3800966 Z" id="Path"></path>
            <path d="M43.32616,51.5106129 L45.1924858,49.8785584 L43.32616,51.5106129 Z" id="Path"></path>
            <path d="M47.2033265,55.9605651 L49.069659,54.3285106 L47.2033265,55.9605651 Z" id="Path"></path>
            <path d="M48.4805099,57.4264043 L50.3468244,55.7943724 L48.4805099,57.4264043 Z" id="Path"></path>
            <path d="M49.8033028,58.9446328 L51.6696173,57.3125783 L49.8033028,58.9446328 Z" id="Path"></path>
            <path d="M53.7260765,63.4469065 L55.5924136,61.8148746 L53.7260765,63.4469065 Z" id="Path"></path>
            <path d="M55.0032645,64.9127684 L56.869579,63.2807139 L55.0032645,64.9127684 Z" id="Path"></path>
            <path d="M59.0172707,69.5197755 L60.8836078,67.887721 L59.0172707,69.5197755 Z" id="Path"></path>
            <path d="M60.3400637,71.0379815 L62.2064007,69.405927 L60.3400637,71.0379815 Z" id="Path"></path>
            <path d="M61.6628566,72.5561874 L63.5291936,70.9241329 L61.6628566,72.5561874 Z" id="Path"></path>
            <path d="M62.9856495,74.0743934 L64.8519865,72.4423389 L62.9856495,74.0743934 Z" id="Path"></path>
            <path d="M19.6342803,22.4318134 L21.26337,24.3015825 L19.6342803,22.4318134 Z" id="Path"></path>
            <path d="M21.1578051,26.0674079 L23.0241174,24.4353985 L21.1578051,26.0674079 Z" id="Path"></path>
        </g>
        <g transform="translate( 175.000000, 218.000000)">
            <path d="M131.892292,217.04876 L134.002058,215.747985 L131.892292,217.04876 Z" id="Path"></path>
            <path d="M76.9020003,131.765204 L75.6035751,129.651561 L76.9020003,131.765204 Z" id="Path"></path>
            <path d="M78.9742468,135.138559 L77.6758441,133.024916 L78.9742468,135.138559 Z" id="Path"></path>
            <path d="M81.1555849,138.689433 L79.8571597,136.575812 L81.1555849,138.689433 Z" id="Path"></path>
            <path d="M83.3732719,142.29951 L82.0748467,140.185866 L83.3732719,142.29951 Z" id="Path"></path>
            <path d="M85.5364131,145.820804 L84.2379879,143.707184 L85.5364131,145.820804 Z" id="Path"></path>
            <path d="M89.2991977,151.946085 L88.0007725,149.832442 L89.2991977,151.946085 Z" id="Path"></path>
            <path d="M94.8070213,160.912074 L93.5086186,158.798431 L94.8070213,160.912074 Z" id="Path"></path>
            <path d="M97.733624,165.676181 L96.4352214,163.562538 L97.733624,165.676181 Z" id="Path"></path>
            <path d="M101.132852,171.209635 L99.8344496,169.095991 L101.132852,171.209635 Z" id="Path"></path>
            <path d="M105.531855,178.370563 L104.23343,176.256942 L105.531855,178.370563 Z" id="Path"></path>
            <path d="M107.876786,182.187782 L106.57836,180.074139 L107.876786,182.187782 Z" id="Path"></path>
            <path d="M108.822307,183.726948 L108.767896,183.638415 L108.822307,183.726948 Z" id="Path"></path>
            <path d="M110.154333,185.895327 L109.454313,184.755782 L110.154333,185.895327 Z" id="Path"></path>
            <path d="M113.239191,190.917049 L111.940788,188.803406 L113.239191,190.917049 Z" id="Path"></path>
            <path d="M115.42429,194.474082 L114.125888,192.360439 L115.42429,194.474082 Z" id="Path"></path>
            <path d="M121.54259,204.433798 L120.244188,202.320154 L121.54259,204.433798 Z" id="Path"></path>
            <path d="M123.753408,208.032683 L122.454983,205.91904 L123.753408,208.032683 Z" id="Path"></path>
            <path d="M125.887092,211.506034 L124.588689,209.392413 L125.887092,211.506034 Z" id="Path"></path>
            <path d="M73.7456159,128.994687 L75.8554048,127.69389 L73.7456159,128.994687 Z" id="Path"></path>
            <path d="M85.3395346,147.867934 L87.4493235,146.567137 L85.3395346,147.867934 Z" id="Path"></path>
            <path d="M86.2392932,149.3326 L88.3490596,148.031826 L86.2392932,149.3326 Z" id="Path"></path>
            <path d="M89.7611708,155.065729 L91.8709597,153.764932 L89.7611708,155.065729 Z" id="Path"></path>
            <path d="M91.3035884,157.576578 L93.4133773,156.275781 L91.3035884,157.576578 Z" id="Path"></path>
            <path d="M97.7303585,168.038459 L99.8401474,166.737662 L97.7303585,168.038459 Z" id="Path"></path>
            <path d="M101.277955,173.813418 L103.387744,172.512643 L101.277955,173.813418 Z" id="Path"></path>
            <path d="M102.383353,175.612883 L104.493142,174.312086 L102.383353,175.612883 Z" id="Path"></path>
            <path d="M110.146924,188.250859 L112.25669,186.950062 L110.146924,188.250859 Z" id="Path"></path>
            <path d="M115.108388,196.327426 L117.218177,195.026651 L115.108388,196.327426 Z" id="Path"></path>
            <path d="M116.239505,198.168722 L118.349294,196.867925 L116.239505,198.168722 Z" id="Path"></path>
            <path d="M117.293487,199.884482 L119.403276,198.583685 L117.293487,199.884482 Z" id="Path"></path>
            <path d="M118.321773,201.558366 L120.431562,200.257592 L118.321773,201.558366 Z" id="Path"></path>
            <path d="M135.15966,220 L8.77088629,14.2568982 L135.15966,220 Z" id="Path"></path>
            <path d="M6.52121722,10.5947706 L0.450515238,0.71251104 L6.52121722,10.5947706 Z" id="Path"></path>
        </g>
        <g transform="translate( 159.000000, 218.000000)">
            <path d="M16.445957,0.539211293 L15.4051314,11.8176834 L16.445957,0.539211293 Z" id="Path"></path>
            <path d="M15.0371632,15.8049989 L9.58934224,74.8380088 L15.0371632,15.8049989 Z" id="Path"></path>
            <path d="M8.46731044,86.9964266 L8.23924938,89.4677022 L8.46731044,86.9964266 Z" id="Path"></path>
            <path d="M8.03157657,91.7180494 L7.8035155,94.1893475 L8.03157657,91.7180494 Z" id="Path"></path>
            <path d="M7.61165017,96.2684256 L7.38358685,98.7397237 L7.61165017,96.2684256 Z" id="Path"></path>
            <path d="M6.88693369,104.121515 L6.65887038,106.59279 L6.88693369,104.121515 Z" id="Path"></path>
            <path d="M6.08996988,112.757442 L5.86190881,115.22874 L6.08996988,112.757442 Z" id="Path"></path>
            <path d="M5.30655469,121.246602 L5.07849363,123.717878 L5.30655469,121.246602 Z" id="Path"></path>
            <path d="M4.85953329,126.090557 L4.63147223,128.561855 L4.85953329,126.090557 Z" id="Path"></path>
            <path d="M4.31317406,132.010951 L4.08511074,134.482249 L4.31317406,132.010951 Z" id="Path"></path>
            <path d="M3.70134179,138.640812 L3.47328073,141.11211 L3.70134179,138.640812 Z" id="Path"></path>
            <path d="M3.08950953,145.270672 L2.86144847,147.741947 L3.08950953,145.270672 Z" id="Path"></path>
            <path d="M2.66280882,149.894443 L2.43474551,152.365718 L2.66280882,149.894443 Z" id="Path"></path>
            <path d="M8.79057224,70.014157 L11.2573594,70.2426211 L8.79057224,70.014157 Z" id="Path"></path>
            <path d="M7.99586728,78.6256269 L10.4626567,78.8540911 L7.99586728,78.6256269 Z" id="Path"></path>
            <path d="M7.79267615,80.8274204 L10.2594656,81.0558846 L7.79267615,80.8274204 Z" id="Path"></path>
            <path d="M7.60302914,82.8824246 L10.0698186,83.1109114 L7.60302914,82.8824246 Z" id="Path"></path>
            <path d="M7.41338438,84.9374514 L9.88017381,85.1659156 L7.41338438,84.9374514 Z" id="Path"></path>
            <path d="M5.96395142,100.643607 L8.43074086,100.872094 L5.96395142,100.643607 Z" id="Path"></path>
            <path d="M5.76076029,102.8454 L8.22754972,103.073864 L5.76076029,102.8454 Z" id="Path"></path>
            <path d="M5.2414938,108.472193 L7.70828324,108.70068 L5.2414938,108.472193 Z" id="Path"></path>
            <path d="M5.029274,110.771861 L7.49606118,111.000325 L5.029274,110.771861 Z" id="Path"></path>
            <path d="M4.44227564,117.132601 L6.90906282,117.361087 L4.44227564,117.132601 Z" id="Path"></path>
            <path d="M4.24359996,119.285457 L6.71038939,119.513943 L4.24359996,119.285457 Z" id="Path"></path>
            <path d="M3.2637657,129.903016 L5.73055288,130.131503 L3.2637657,129.903016 Z" id="Path"></path>
            <path d="M2.64064366,136.655208 L5.1074331,136.883695 L2.64064366,136.655208 Z" id="Path"></path>
            <path d="M2.03107026,143.260611 L4.49785969,143.489076 L2.03107026,143.260611 Z" id="Path"></path>
            <path d="M1.01059687,154.318516 L3.4773863,154.547003 L1.01059687,154.318516 Z" id="Path"></path>
            <path d="M0.825465316,156.324606 L3.29225475,156.553092 L0.825465316,156.324606 Z" id="Path"></path>
            <path d="M0.644851473,158.281758 L3.11164091,158.510245 L0.644851473,158.281758 Z" id="Path"></path>
        </g>
        <g transform="translate( 113.000000, 218.000000)">
            <path d="M62.5711737,0.745587127 L60.3583242,3.42623932 L62.5711737,0.745587127 Z" id="Path"></path>
            <path d="M56.9418561,7.56499195 L55.3630761,9.47753888 L56.9418561,7.56499195 Z" id="Path"></path>
            <path d="M52.9191522,12.4381195 L51.34037,14.3506664 L52.9191522,12.4381195 Z" id="Path"></path>
            <path d="M48.6754161,17.5790144 L47.0966361,19.4915613 L48.6754161,17.5790144 Z" id="Path"></path>
            <path d="M43.2823437,24.1122185 L41.7035637,26.0247655 L43.2823437,24.1122185 Z" id="Path"></path>
            <path d="M37.9776819,30.5383428 L36.3989019,32.4508897 L37.9776819,30.5383428 Z" id="Path"></path>
            <path d="M34.927493,34.233366 L33.3487107,36.1459129 L34.927493,34.233366 Z" id="Path"></path>
            <path d="M29.6228312,40.6594677 L28.044049,42.5720146 L29.6228312,40.6594677 Z" id="Path"></path>
            <path d="M24.1855524,47.2462343 L22.6067724,49.1587813 L24.1855524,47.2462343 Z" id="Path"></path>
            <path d="M21.2237741,50.834155 L19.6449918,52.746702 L21.2237741,50.834155 Z" id="Path"></path>
            <path d="M17.1126573,55.814385 L15.533875,57.7269319 L17.1126573,55.814385 Z" id="Path"></path>
            <path d="M12.8689212,60.9552799 L11.2901412,62.8678268 L12.8689212,60.9552799 Z" id="Path"></path>
            <path d="M9.90714287,64.5432006 L8.32836286,66.4557475 L9.90714287,64.5432006 Z" id="Path"></path>
            <path d="M7.3432159,67.6491716 L5.76443589,69.5617185 L7.3432159,67.6491716 Z" id="Path"></path>
            <path d="M4.77929118,70.75512 L3.20050891,72.6676669 L4.77929118,70.75512 Z" id="Path"></path>
            <path d="M57.3197899,5.1600039 L59.2288492,6.74165458 L57.3197899,5.1600039 Z" id="Path"></path>
            <path d="M53.2528773,10.0866939 L55.1619389,11.6683446 L53.2528773,10.0866939 Z" id="Path"></path>
            <path d="M48.8765263,15.3882312 L50.7855856,16.9699045 L48.8765263,15.3882312 Z" id="Path"></path>
            <path d="M44.8980266,20.2078188 L46.8070859,21.789492 L44.8980266,20.2078188 Z" id="Path"></path>
            <path d="M43.5718645,21.8143329 L45.4809239,23.3960062 L43.5718645,21.8143329 Z" id="Path"></path>
            <path d="M39.6817777,26.526818 L41.5908371,28.1084913 L39.6817777,26.526818 Z" id="Path"></path>
            <path d="M38.3114092,28.1868947 L40.2204686,29.7685679 L38.3114092,28.1868947 Z" id="Path"></path>
            <path d="M31.1943077,36.8086079 L33.1033671,38.3902811 L31.1943077,36.8086079 Z" id="Path"></path>
            <path d="M30.0007628,38.2544796 L31.9098244,39.8361529 L30.0007628,38.2544796 Z" id="Path"></path>
            <path d="M25.889646,43.2347096 L27.7987076,44.8163828 L25.889646,43.2347096 Z" id="Path"></path>
            <path d="M24.5634839,44.8412463 L26.4725455,46.422897 L24.5634839,44.8412463 Z" id="Path"></path>
            <path d="M17.6232059,53.2487546 L19.5322675,54.8304052 L17.6232059,53.2487546 Z" id="Path"></path>
            <path d="M13.2910591,58.4967519 L15.2001207,60.0784026 L13.2910591,58.4967519 Z" id="Path"></path>
            <path d="M1.35556232,72.9554921 L3.26462167,74.5371653 L1.35556232,72.9554921 Z" id="Path"></path>
            <path d="M0.0294002605,74.5620288 L1.93845961,76.1436794 L0.0294002605,74.5620288 Z" id="Path"></path>
        </g>
        <g transform="translate( 73.000000 , 218.000000)">
            <path d="M102.016394,0.557261 L92.0974401,3.83738908 L102.016394,0.557261 Z" id="Path"></path>
            <path d="M87.9583725,5.20614346 L84.505542,6.34796791 L87.9583725,5.20614346 Z" id="Path"></path>
            <path d="M79.312679,8.06523957 L76.9602196,8.84318193 L79.312679,8.06523957 Z" id="Path"></path>
            <path d="M71.5810629,10.6220482 L69.2286036,11.3999906 L71.5810629,10.6220482 Z" id="Path"></path>
            <path d="M67.6221092,11.9312386 L65.2696498,12.7091809 L67.6221092,11.9312386 Z" id="Path"></path>
            <path d="M57.8877195,15.1503586 L55.5352578,15.928301 L57.8877195,15.1503586 Z" id="Path"></path>
            <path d="M44.566979,19.5554573 L42.2145197,20.3333996 L44.566979,19.5554573 Z" id="Path"></path>
            <path d="M38.4655336,21.5731663 L36.1130743,22.3511086 L38.4655336,21.5731663 Z" id="Path"></path>
            <path d="M32.4572238,23.560078 L30.1047644,24.3380204 L32.4572238,23.560078 Z" id="Path"></path>
            <path d="M21.0926837,27.3182751 L18.7402243,28.0962175 L21.0926837,27.3182751 Z" id="Path"></path>
            <path d="M17.087152,28.6428754 L14.7346927,29.4208178 L17.087152,28.6428754 Z" id="Path"></path>
            <path d="M13.3144897,29.8904937 L10.9620303,30.6684361 L13.3144897,29.8904937 Z" id="Path"></path>
            <path d="M7.30617989,31.8773829 L4.95372051,32.6553252 L7.30617989,31.8773829 Z" id="Path"></path>
            <path d="M94.9963758,1.57194783 L95.7729041,3.92869803 L94.9963758,1.57194783 Z" id="Path"></path>
            <path d="M80.7029403,6.29871478 L81.4794663,8.65546498 L80.7029403,6.29871478 Z" id="Path"></path>
            <path d="M74.9065214,8.21554851 L75.6830497,10.5722987 L74.9065214,8.21554851 Z" id="Path"></path>
            <path d="M72.8646085,8.8908106 L73.6411345,11.2475608 L72.8646085,8.8908106 Z" id="Path"></path>
            <path d="M62.9184719,12.179941 L63.6950002,14.5367137 L62.9184719,12.179941 Z" id="Path"></path>
            <path d="M61.0741672,12.7898406 L61.8506932,15.1465908 L61.0741672,12.7898406 Z" id="Path"></path>
            <path d="M59.2298579,13.3997627 L60.0063862,15.7564904 L59.2298579,13.3997627 Z" id="Path"></path>
            <path d="M53.7627838,15.2076665 L54.5393121,17.5644392 L53.7627838,15.2076665 Z" id="Path"></path>
            <path d="M51.7208731,15.882906 L52.4973991,18.2396788 L51.7208731,15.882906 Z" id="Path"></path>
            <path d="M45.7927177,17.8433298 L46.5692438,20.20008 L45.7927177,17.8433298 Z" id="Path"></path>
            <path d="M39.7328258,19.8472985 L40.5093496,22.2040712 L39.7328258,19.8472985 Z" id="Path"></path>
            <path d="M33.8046682,21.8077222 L34.5811942,24.1644499 L33.8046682,21.8077222 Z" id="Path"></path>
            <path d="M27.8106434,23.7898959 L28.5871717,26.1466461 L27.8106434,23.7898959 Z" id="Path"></path>
            <path d="M25.9663387,24.3997955 L26.7428647,26.7565683 L25.9663387,24.3997955 Z" id="Path"></path>
            <path d="M23.9902929,25.0532626 L24.7668189,27.4100128 L23.9902929,25.0532626 Z" id="Path"></path>
            <path d="M22.0801188,25.6849797 L22.8566448,28.0417074 L22.0801188,25.6849797 Z" id="Path"></path>
            <path d="M8.70882323,30.1067743 L9.4853515,32.4635245 L8.70882323,30.1067743 Z" id="Path"></path>
            <path d="M2.84653725,32.0453805 L3.62306326,34.4021533 L2.84653725,32.0453805 Z" id="Path"></path>
            <path d="M0.804622069,32.7206652 L1.58115034,35.0774154 L0.804622069,32.7206652 Z" id="Path"></path>
            <path d="M50.388975,17.6301402 L48.0365156,18.4080825 L50.388975,17.6301402 Z" id="Path"></path>
        </g>
        <g transform="translate( 0.000000  , 218.000000)">
            <path d="M175.060657,0.264878313 L86.5704273,8.96235512 L175.060657,0.264878313 Z" id="Path"></path>
            <path d="M74.118925,10.1809811 L71.6534283,10.4233209 L74.118925,10.1809811 Z" id="Path"></path>
            <path d="M69.8233388,10.603254 L67.3578826,10.8455261 L69.8233388,10.603254 Z" id="Path"></path>
            <path d="M60.2070829,11.5483817 L57.7416132,11.7906765 L60.2070829,11.5483817 Z" id="Path"></path>
            <path d="M56.0579439,11.9561697 L53.5924787,12.1984645 L56.0579439,11.9561697 Z" id="Path"></path>
            <path d="M51.469479,12.4072093 L49.0040273,12.6494815 L51.469479,12.4072093 Z" id="Path"></path>
            <path d="M47.6619676,12.7813798 L45.1964709,13.0236971 L47.6619676,12.7813798 Z" id="Path"></path>
            <path d="M43.1224115,13.2277039 L40.6569193,13.4699309 L43.1224115,13.2277039 Z" id="Path"></path>
            <path d="M37.4600129,13.784041 L34.9944959,14.026426 L37.4600129,13.784041 Z" id="Path"></path>
            <path d="M31.1631033,14.4030105 L28.6975165,14.645373 L31.1631033,14.4030105 Z" id="Path"></path>
            <path d="M24.5732271,15.0507694 L22.1077394,15.2930416 L24.5732271,15.0507694 Z" id="Path"></path>
            <path d="M20.6193091,15.4393344 L18.1538194,15.6816743 L20.6193091,15.4393344 Z" id="Path"></path>
            <path d="M16.470206,15.8471224 L14.004677,16.0895074 L16.470206,15.8471224 Z" id="Path"></path>
            <path d="M12.5651006,16.230972 L10.0996861,16.4732893 L12.5651006,16.230972 Z" id="Path"></path>
            <path d="M0,17.4659555 L7.84965892,16.6944208 L0,17.4659555 Z" id="Path"></path>
            <path d="M95.1876047,6.86337729 L95.4294801,9.33329916 L95.1876047,6.86337729 Z" id="Path"></path>
            <path d="M83.5901119,8.00319371 L83.8320369,10.4732058 L83.5901119,8.00319371 Z" id="Path"></path>
            <path d="M77.9294812,8.55957592 L78.1713161,11.029588 L77.9294812,8.55957592 Z" id="Path"></path>
            <path d="M76.0655426,8.742803 L76.3074451,11.2128151 L76.0655426,8.742803 Z" id="Path"></path>
            <path d="M65.5036191,9.78090932 L65.7454855,12.2509891 L65.5036191,9.78090932 Z" id="Path"></path>
            <path d="M63.8467745,9.94378536 L64.08865,12.4137072 L63.8467745,9.94378536 Z" id="Path"></path>
            <path d="M62.0519124,10.1201536 L62.2938306,12.5901657 L62.0519124,10.1201536 Z" id="Path"></path>
            <path d="M39.4091956,12.3456824 L39.6510508,14.8155591 L39.4091956,12.3456824 Z" id="Path"></path>
            <path d="M33.1271927,12.9630501 L33.3691559,15.4331073 L33.1271927,12.9630501 Z" id="Path"></path>
            <path d="M26.7071563,13.5940678 L26.9490791,16.0641025 L26.7071563,13.5940678 Z" id="Path"></path>
            <path d="M4.13349545,15.8128506 L4.37534927,18.2828176 L4.13349545,15.8128506 Z" id="Path"></path>
            <path d="M81.7338373,9.43259511 L79.2683563,9.67488986 L81.7338373,9.43259511 Z" id="Path"></path>
        </g>
        <g transform="translate( 15.000000 , 218.000000)">
            <path d="M160.060037,0.259824395 L149.289114,0.923940792 L160.060037,0.259824395 Z" id="Path"></path>
            <path d="M146.090233,1.12108871 L103.629702,3.73890537 L146.090233,1.12108871 Z" id="Path"></path>
            <path d="M97.5994926,2.04024747 L100.071106,1.87164064 L97.5994926,2.04024747 Z" id="Path"></path>
            <path d="M93.5868601,2.31374565 L96.0583902,2.14522907 L93.5868601,2.31374565 Z" id="Path"></path>
            <path d="M76.2149762,3.49823509 L78.6866257,3.32974108 L76.2149762,3.49823509 Z" id="Path"></path>
            <path d="M71.5173543,3.81852714 L73.9888686,3.64992031 L71.5173543,3.81852714 Z" id="Path"></path>
            <path d="M67.6024584,4.0854823 L70.0740876,3.91696572 L67.6024584,4.0854823 Z" id="Path"></path>
            <path d="M59.136872,4.66264423 L61.6084246,4.49415022 L59.136872,4.66264423 Z" id="Path"></path>
            <path d="M53.8029667,5.02632326 L56.2745284,4.85778413 L53.8029667,5.02632326 Z" id="Path"></path>
            <path d="M47.588189,5.449995 L50.0598317,5.28150099 L47.588189,5.449995 Z" id="Path"></path>
            <path d="M43.1840696,5.750297 L45.6557055,5.58182555 L43.1840696,5.750297 Z" id="Path"></path>
            <path d="M32.3206125,6.49092159 L34.7922237,6.32249526 L32.3206125,6.49092159 Z" id="Path"></path>
            <path d="M27.7696675,6.80126373 L30.2412517,6.63279228 L27.7696675,6.80126373 Z" id="Path"></path>
            <path d="M19.1571834,7.38853351 L21.6287338,7.21994924 L19.1571834,7.38853351 Z" id="Path"></path>
            <path d="M14.4594219,7.70878043 L16.9310511,7.54028641 L14.4594219,7.70878043 Z" id="Path"></path>
            <path d="M10.7892706,7.95894936 L13.2609561,7.79047791 L10.7892706,7.95894936 Z" id="Path"></path>
            <path d="M4.4277985,8.39272894 L6.89937972,8.22421236 L4.4277985,8.39272894 Z" id="Path"></path>
            <path d="M0.0236680756,8.69300837 L2.49524863,8.52451436 L0.0236680756,8.69300837 Z" id="Path"></path>
            <path d="M101.882929,0.504375359 L102.051176,2.98047925 L101.882929,0.504375359 Z" id="Path"></path>
            <path d="M86.2238496,1.57203807 L86.3920341,4.04816453 L86.2238496,1.57203807 Z" id="Path"></path>
            <path d="M79.9602395,1.99904901 L80.1284263,4.47517547 L79.9602395,1.99904901 Z" id="Path"></path>
            <path d="M65.3287504,2.99667886 L65.4970025,5.47280532 L65.3287504,2.99667886 Z" id="Path"></path>
            <path d="M63.3713745,3.13013388 L63.5395726,5.60623778 L63.3713745,3.13013388 Z" id="Path"></path>
            <path d="M57.352392,3.54051653 L57.5206959,6.01666555 L57.352392,3.54051653 Z" id="Path"></path>
            <path d="M51.1376998,3.96425596 L51.3059519,6.44029216 L51.1376998,3.96425596 Z" id="Path"></path>
            <path d="M36.652998,4.95177797 L36.8212276,7.42783674 L36.652998,4.95177797 Z" id="Path"></path>
            <path d="M26.4256958,5.64912839 L26.5938804,8.12523229 L26.4256958,5.64912839 Z" id="Path"></path>
            <path d="M24.712943,5.76593256 L24.8811027,8.24199133 L24.712943,5.76593256 Z" id="Path"></path>
            <path d="M22.7555671,5.89929733 L22.9237448,8.37546891 L22.7555671,5.89929733 Z" id="Path"></path>
            <path d="M8.1730431,6.89354286 L8.34126589,9.36969188 L8.1730431,6.89354286 Z" id="Path"></path>
            <path d="M110.40732,2.07594076 L110.560167,4.55303739 L110.40732,2.07594076 Z" id="Path"></path>
            <path d="M81.8914708,3.11115913 L84.3630257,2.94268768 L81.8914708,3.11115913 Z" id="Path"></path>
            <path d="M38.5842923,6.06384297 L41.0558675,5.89539408 L38.5842923,6.06384297 Z" id="Path"></path>
            <path d="M91.5088685,1.21163056 L91.6769764,3.68784726 L91.5088685,1.21163056 Z" id="Path"></path>
            <path d="M89.7961066,1.32847984 L89.9642438,3.8046063 L89.7961066,1.32847984 Z" id="Path"></path>
            <path d="M87.9854955,1.45191728 L88.1537589,3.92799861 L87.9854955,1.45191728 Z" id="Path"></path>
        </g>
        <g transform="translate( 78.000000 , 149.000000)">
            <path d="M88.1129521,62.9052446 L97.3910621,69.4649819 L88.1129521,62.9052446 Z" id="Path"></path>
            <path d="M59.8333552,42.9111784 L61.8573887,44.3421817 L59.8333552,42.9111784 Z" id="Path"></path>
            <path d="M56.4896727,40.5471406 L58.5137062,41.9781665 L56.4896727,40.5471406 Z" id="Path"></path>
            <path d="M53.2593361,38.2632435 L55.2833673,39.6942694 L53.2593361,38.2632435 Z" id="Path"></path>
            <path d="M40.5080231,29.2478888 L42.5320567,30.6789147 L40.5080231,29.2478888 Z" id="Path"></path>
            <path d="M36.824303,26.6434515 L38.8483365,28.0744774 L36.824303,26.6434515 Z" id="Path"></path>
            <path d="M33.2539287,24.1191549 L35.2779622,25.5501808 L33.2539287,24.1191549 Z" id="Path"></path>
            <path d="M22.4294779,16.4661176 L24.4535092,17.8971367 L22.4294779,16.4661176 Z" id="Path"></path>
            <path d="M19.0857954,14.1020866 L21.1098267,15.5331057 L19.0857954,14.1020866 Z" id="Path"></path>
            <path d="M14.8353638,11.0969751 L16.859395,12.527992 L14.8353638,11.0969751 Z" id="Path"></path>
            <path d="M11.2083154,8.5326014 L13.2323489,9.96362051 L11.2083154,8.5326014 Z" id="Path"></path>
            <path d="M6.56117428,5.24700877 L8.58520554,6.67802788 L6.56117428,5.24700877 Z" id="Path"></path>
            <path d="M0.213844712,0.759359826 L2.23787822,2.19037893 L0.213844712,0.759359826 Z" id="Path"></path>
            <path d="M73.3473212,50.9469078 L71.9189116,52.9746344 L73.3473212,50.9469078 Z" id="Path"></path>
            <path d="M68.7001778,47.6613197 L67.2717705,49.6890463 L68.7001778,47.6613197 Z" id="Path"></path>
            <path d="M67.2456168,46.6329151 L65.8172072,48.6606643 L67.2456168,46.6329151 Z" id="Path"></path>
            <path d="M65.7909995,45.6044879 L64.3625922,47.6322145 L65.7909995,45.6044879 Z" id="Path"></path>
            <path d="M64.3364205,44.5760833 L62.9080109,46.6038099 L64.3364205,44.5760833 Z" id="Path"></path>
            <path d="M52.4918567,36.2018091 L51.0634471,38.2295357 L52.4918567,36.2018091 Z" id="Path"></path>
            <path d="M51.0070636,35.1520381 L49.578654,37.1797648 L51.0070636,35.1520381 Z" id="Path"></path>
            <path d="M49.5222321,34.1022446 L48.0938248,36.1299713 L49.5222321,34.1022446 Z" id="Path"></path>
            <path d="M48.037421,33.0524737 L46.6090114,35.0802003 L48.037421,33.0524737 Z" id="Path"></path>
            <path d="M46.5526278,32.0027027 L45.1242182,34.0304294 L46.5526278,32.0027027 Z" id="Path"></path>
            <path d="M45.0677986,30.9529092 L43.639389,32.9806359 L45.0677986,30.9529092 Z" id="Path"></path>
            <path d="M32.6565234,22.1779541 L31.2281137,24.2056807 L32.6565234,22.1779541 Z" id="Path"></path>
            <path d="M31.1971969,21.1461967 L29.7687873,23.1739369 L31.1971969,21.1461967 Z" id="Path"></path>
            <path d="M29.7378885,20.1144462 L28.3094789,22.1421705 L29.7378885,20.1144462 Z" id="Path"></path>
            <path d="M28.2785779,19.0826956 L26.8501683,21.1104245 L28.2785779,19.0826956 Z" id="Path"></path>
            <path d="M26.8192875,18.0509563 L25.3908779,20.0786852 L26.8192875,18.0509563 Z" id="Path"></path>
            <path d="M11.0076579,6.87191557 L9.57924829,8.8996467 L11.0076579,6.87191557 Z" id="Path"></path>
            <path d="M6.07715089,3.38598022 L4.64874354,5.41371135 L6.07715089,3.38598022 Z" id="Path"></path>
            <path d="M4.43365681,2.22400554 L3.00524721,4.25173666 L4.43365681,2.22400554 Z" id="Path"></path>
            <path d="M71.847939,51.4056411 L85.0364586,60.7301196 L71.847939,51.4056411 Z" id="Path"></path>
        </g>
        <g transform="translate( 152.000000, 65.000000)">
            <path d="M23.4488127,153.693627 L21.8515542,142.500259 L23.4488127,153.693627 Z" id="Path"></path>
            <path d="M15.222728,96.0463536 L14.8721415,93.5894975 L15.222728,96.0463536 Z" id="Path"></path>
            <path d="M13.976056,87.3098375 L13.6254695,84.8529814 L13.976056,87.3098375 Z" id="Path"></path>
            <path d="M12.778464,78.9172834 L12.4278775,76.4604273 L12.778464,78.9172834 Z" id="Path"></path>
            <path d="M12.1109531,74.2394515 L11.7603666,71.7825954 L12.1109531,74.2394515 Z" id="Path"></path>
            <path d="M11.2078501,67.9106355 L10.8572636,65.4537771 L11.2078501,67.9106355 Z" id="Path"></path>
            <path d="M9.99062662,59.3804952 L9.6400401,56.9236391 L9.99062662,59.3804952 Z" id="Path"></path>
            <path d="M9.07770672,52.9828872 L8.72712246,50.5260288 L9.07770672,52.9828872 Z" id="Path"></path>
            <path d="M8.42982962,48.4426369 L8.0792431,45.9857808 L8.42982962,48.4426369 Z" id="Path"></path>
            <path d="M7.53654352,42.1826128 L7.18595701,39.7257567 L7.53654352,42.1826128 Z" id="Path"></path>
            <path d="M6.94756331,38.0551164 L6.5969768,35.5982603 L6.94756331,38.0551164 Z" id="Path"></path>
            <path d="M6.3487662,33.8588281 L5.99817968,31.401972 L6.3487662,33.8588281 Z" id="Path"></path>
            <path d="M5.71070149,29.387372 L5.36011722,26.9305159 L5.71070149,29.387372 Z" id="Path"></path>
            <path d="M4.84686609,23.3337215 L4.49627958,20.8768653 L4.84686609,23.3337215 Z" id="Path"></path>
            <path d="M3.67872482,15.1475432 L3.3281383,12.6906871 L3.67872482,15.1475432 Z" id="Path"></path>
            <path d="M2.90323477,9.71302246 L2.55265051,7.25616406 L2.90323477,9.71302246 Z" id="Path"></path>
            <path d="M2.24554076,5.10398021 L1.89495425,2.64712407 L2.24554076,5.10398021 Z" id="Path"></path>
            <path d="M18.3056016,108.882139 L15.8532256,109.233363 L18.3056016,108.882139 Z" id="Path"></path>
            <path d="M16.78407,98.2194503 L14.331694,98.5706773 L16.78407,98.2194503 Z" id="Path"></path>
            <path d="M15.7926194,91.2715045 L13.3402434,91.6227315 L15.7926194,91.2715045 Z" id="Path"></path>
            <path d="M15.5177642,89.3453526 L13.0653882,89.6965773 L15.5177642,89.3453526 Z" id="Path"></path>
            <path d="M14.5852128,82.8101585 L12.1328368,83.1613854 L14.5852128,82.8101585 Z" id="Path"></path>
            <path d="M14.3005407,80.8152124 L11.8481647,81.1664394 L14.3005407,80.8152124 Z" id="Path"></path>
            <path d="M12.7299268,69.8085644 L10.2775508,70.1597891 L12.7299268,69.8085644 Z" id="Path"></path>
            <path d="M11.80719,63.3421622 L9.354814,63.6933892 L11.80719,63.3421622 Z" id="Path"></path>
            <path d="M11.5028864,61.2096322 L9.05051038,61.5608592 L11.5028864,61.2096322 Z" id="Path"></path>
            <path d="M10.5997834,54.8808161 L8.14740738,55.2320409 L10.5997834,54.8808161 Z" id="Path"></path>
            <path d="M9.01935259,43.805374 L6.56697658,44.1566009 L9.01935259,43.805374 Z" id="Path"></path>
            <path d="M6.31986276,24.8877132 L3.86748676,25.2389402 L6.31986276,24.8877132 Z" id="Path"></path>
            <path d="M5.47565891,18.9716466 L3.02328291,19.3228736 L5.47565891,18.9716466 Z" id="Path"></path>
            <path d="M5.19098683,16.9767028 L2.73861083,17.3279298 L5.19098683,16.9767028 Z" id="Path"></path>
            <path d="M2.84488514,0.535531749 L0.392506882,0.88675648 L2.84488514,0.535531749 Z" id="Path"></path>
            <path d="M21.3088523,138.697095 L16.2366117,103.151515 L21.3088523,138.697095 Z" id="Path"></path>
        </g>
        <g transform="translate( 175.000000, 114.000000)">
            <path d="M0.451823707,104.593857 L4.50293332,94.0401481 L0.451823707,104.593857 Z" id="Path"></path>
            <path d="M5.77978792,90.7137677 L6.66897519,88.3973134 L5.77978792,90.7137677 Z" id="Path"></path>
            <path d="M8.51846652,83.5791247 L9.40765379,81.2626705 L8.51846652,83.5791247 Z" id="Path"></path>
            <path d="M13.0746274,71.7097053 L13.9638124,69.393251 L13.0746274,71.7097053 Z" id="Path"></path>
            <path d="M14.5186575,67.947808 L15.4078448,65.6313537 L14.5186575,67.947808 Z" id="Path"></path>
            <path d="M19.0748184,56.0783727 L19.9640034,53.7619185 L19.0748184,56.0783727 Z" id="Path"></path>
            <path d="M20.9420923,51.2138617 L21.8312796,48.8974074 L20.9420923,51.2138617 Z" id="Path"></path>
            <path d="M24.7264475,41.3550983 L25.6156325,39.0386441 L24.7264475,41.3550983 Z" id="Path"></path>
            <path d="M26.2949647,37.2688929 L27.1841497,34.9524387 L26.2949647,37.2688929 Z" id="Path"></path>
            <path d="M29.4319901,29.0965069 L30.3211774,26.7800526 L29.4319901,29.0965069 Z" id="Path"></path>
            <path d="M30.9507134,25.1400247 L31.8398984,22.8235705 L30.9507134,25.1400247 Z" id="Path"></path>
            <path d="M32.4445375,21.2484019 L33.3337247,18.9319499 L32.4445375,21.2484019 Z" id="Path"></path>
            <path d="M34.2869167,16.4487525 L35.1761017,14.1322982 L34.2869167,16.4487525 Z" id="Path"></path>
            <path d="M35.8305369,12.4274087 L36.7197219,10.1109544 L35.8305369,12.4274087 Z" id="Path"></path>
            <path d="M38.7932813,4.70904724 L39.6824686,2.392593 L38.7932813,4.70904724 Z" id="Path"></path>
            <path d="M6.95726865,91.103506 L4.64503852,90.2127078 L6.95726865,91.103506 Z" id="Path"></path>
            <path d="M8.8245448,86.2389972 L6.51231467,85.3481765 L8.8245448,86.2389972 Z" id="Path"></path>
            <path d="M11.2395585,79.9475463 L8.92732835,79.0567481 L11.2395585,79.9475463 Z" id="Path"></path>
            <path d="M11.9698714,78.0449944 L9.6576413,77.1541737 L11.9698714,78.0449944 Z" id="Path"></path>
            <path d="M12.7001776,76.1424425 L10.3879475,75.2516218 L12.7001776,76.1424425 Z" id="Path"></path>
            <path d="M13.4304906,74.239868 L11.1182604,73.3490699 L13.4304906,74.239868 Z" id="Path"></path>
            <path d="M17.2895366,64.1865198 L14.9773065,63.2957217 L17.2895366,64.1865198 Z" id="Path"></path>
            <path d="M18.0364521,62.2406937 L15.7242219,61.3498956 L18.0364521,62.2406937 Z" id="Path"></path>
            <path d="M18.7833697,60.2948902 L16.4711396,59.4040695 L18.7833697,60.2948902 Z" id="Path"></path>
            <path d="M19.5302604,58.3491319 L17.2180325,57.4583111 L19.5302604,58.3491319 Z" id="Path"></path>
            <path d="M23.6133813,47.712029 L21.3011512,46.8212196 L23.6133813,47.712029 Z" id="Path"></path>
            <path d="M24.360299,45.7662097 L22.0480689,44.8753981 L24.360299,45.7662097 Z" id="Path"></path>
            <path d="M25.1071986,43.8204288 L22.7949685,42.9296194 L25.1071986,43.8204288 Z" id="Path"></path>
            <path d="M29.0160387,33.6373618 L26.7038085,32.7465502 L29.0160387,33.6373618 Z" id="Path"></path>
            <path d="M29.7380504,31.7564222 L27.4258202,30.8656105 L29.7380504,31.7564222 Z" id="Path"></path>
            <path d="M38.4271238,9.12018122 L36.1148959,8.22936953 L38.4271238,9.12018122 Z" id="Path"></path>
            <path d="M39.0993416,7.36896258 L36.7871115,6.47815089 L39.0993416,7.36896258 Z" id="Path"></path>
            <path d="M41.4147675,1.33695816 L39.1025373,0.44614647 L41.4147675,1.33695816 Z" id="Path"></path>
        </g>
        <g transform="translate( 174.000000, 0.000000)">
            <path d="M0.946047296,218.644689 L7.82377998,209.5614 L0.946047296,218.644689 Z" id="Path"></path>
            <path d="M10.6963481,205.767645 L113.469874,70.0364969 L10.6963481,205.767645 Z" id="Path"></path>
            <path d="M120.124399,61.2479999 L121.621572,59.2706929 L120.124399,61.2479999 Z" id="Path"></path>
            <path d="M122.821873,57.6854864 L124.319046,55.7081817 L122.821873,57.6854864 Z" id="Path"></path>
            <path d="M126.408634,52.9485259 L127.905807,50.9712189 L126.408634,52.9485259 Z" id="Path"></path>
            <path d="M135.627466,40.7733692 L137.124662,38.7960622 L135.627466,40.7733692 Z" id="Path"></path>
            <path d="M138.384216,37.1325742 L139.881411,35.1552671 L138.384216,37.1325742 Z" id="Path"></path>
            <path d="M141.140965,33.4917768 L142.638161,31.5144698 L141.140965,33.4917768 Z" id="Path"></path>
            <path d="M147.543773,25.0357194 L149.040946,23.0584124 L147.543773,25.0357194 Z" id="Path"></path>
            <path d="M151.812311,19.398347 L153.309484,17.42104 L151.812311,19.398347 Z" id="Path"></path>
            <path d="M154.628336,15.6792478 L156.125532,13.7019408 L154.628336,15.6792478 Z" id="Path"></path>
            <path d="M157.385108,12.0384527 L158.882281,10.0611457 L157.385108,12.0384527 Z" id="Path"></path>
            <path d="M165.003239,1.97730476 L166.500434,0 L165.003239,1.97730476 Z" id="Path"></path>
            <path d="M110.506697,76.0031862 L108.533003,74.5032646 L110.506697,76.0031862 Z" id="Path"></path>
            <path d="M116.524148,68.0560492 L114.550454,66.5561299 L116.524148,68.0560492 Z" id="Path"></path>
            <path d="M117.739516,66.4509452 L115.765822,64.9510236 L117.739516,66.4509452 Z" id="Path"></path>
            <path d="M118.954839,64.8458931 L116.981122,63.3459715 L118.954839,64.8458931 Z" id="Path"></path>
            <path d="M120.170184,63.2407868 L118.19649,61.7408674 L120.170184,63.2407868 Z" id="Path"></path>
            <path d="M126.0987,55.4111038 L124.125005,53.9111822 L126.0987,55.4111038 Z" id="Path"></path>
            <path d="M130.278303,49.8911831 L128.304608,48.3912615 L130.278303,49.8911831 Z" id="Path"></path>
            <path d="M131.515876,48.2567415 L129.542182,46.7568199 L131.515876,48.2567415 Z" id="Path"></path>
            <path d="M132.75345,46.6223 L130.779755,45.1223784 L132.75345,46.6223 Z" id="Path"></path>
            <path d="M133.991023,44.9878584 L132.017329,43.4879368 L133.991023,44.9878584 Z" id="Path"></path>
            <path d="M135.228619,43.3533988 L133.254925,41.8534772 L135.228619,43.3533988 Z" id="Path"></path>
            <path d="M144.862446,30.6301696 L142.888752,29.130248 L144.862446,30.6301696 Z" id="Path"></path>
            <path d="M146.077814,29.0250633 L144.104097,27.5251439 L146.077814,29.0250633 Z" id="Path"></path>
            <path d="M147.293137,27.4199954 L145.319442,25.9200738 L147.293137,27.4199954 Z" id="Path"></path>
            <path d="M151.383827,22.0175083 L149.41011,20.5175867 L151.383827,22.0175083 Z" id="Path"></path>
            <path d="M161.106589,9.17682738 L159.132895,7.67690578 L161.106589,9.17682738 Z" id="Path"></path>
            <path d="M162.302184,7.59782099 L160.328489,6.09789938 L162.302184,7.59782099 Z" id="Path"></path>
            <path d="M163.497778,6.01881685 L161.524083,4.51889525 L163.497778,6.01881685 Z" id="Path"></path>
            <path d="M164.69335,4.4398646 L162.719633,2.93994526 L164.69335,4.4398646 Z" id="Path"></path>
        </g>
    </g>
</svg>
