<svg viewBox="0 0 109 30" version="1.1" xmlns="http://www.w3.org/2000/svg" xmlns:xlink="http://www.w3.org/1999/xlink" title="スパン子 = spannko website">
    <!-- Generator: Sketch 51.2 (57519) - http://www.bohemiancoding.com/sketch -->
    <desc>Created with Sketch.</desc>
    <defs></defs>
    <g id="Symbols" stroke="none" stroke-width="1" fill="none" fill-rule="evenodd">
        <path d="M10.38,7.41 C10.3199997,7.6300011 10.2650002,7.8999984 10.215,8.22 C10.1649997,8.5400016 10.14,8.8799982 10.14,9.24 C10.14,9.6200019 10.1499999,10.014998 10.17,10.425 C10.1900001,10.8350021 10.2,11.1499989 10.2,11.37 C10.2,11.4300003 10.1600004,11.4799998 10.08,11.52 C9.9999996,11.5600002 9.9100005,11.5849999 9.81,11.595 C9.7099995,11.6050001 9.6200004,11.5950001 9.54,11.565 C9.4599996,11.5349999 9.4100001,11.4900003 9.39,11.43 C9.1699989,10.3699947 8.8100025,9.55500285 8.31,8.985 C7.8099975,8.41499715 7.0100055,8.13 5.91,8.13 C5.1699963,8.13 4.5600024,8.31499815 4.08,8.685 C3.5999976,9.05500185 3.36,9.5499969 3.36,10.17 C3.36,10.6900026 3.559998,11.0899986 3.96,11.37 C4.360002,11.6500014 4.8899967,11.9099988 5.55,12.15 C5.8300014,12.2500005 6.16499805,12.3749993 6.555,12.525 C6.94500195,12.6750008 7.2599988,12.7999995 7.5,12.9 C8.0200026,13.1400012 8.50499775,13.3899987 8.955,13.65 C9.40500225,13.9100013 9.79499835,14.2149983 10.125,14.565 C10.4550016,14.9150018 10.714999,15.3099978 10.905,15.75 C11.0950009,16.1900022 11.19,16.6999971 11.19,17.28 C11.19,18.0400038 11.0300016,18.6749974 10.71,19.185 C10.3899984,19.6950025 9.9800025,20.1049985 9.48,20.415 C8.9799975,20.7250016 8.4100032,20.9499993 7.77,21.09 C7.1299968,21.2300007 6.5000031,21.3 5.88,21.3 C5.3599974,21.3 4.7800032,21.2400006 4.14,21.12 C3.4999968,20.9999994 2.9400024,20.8300011 2.46,20.61 C2.3399994,20.5699998 2.21500065,20.5899996 2.085,20.67 C1.95499935,20.7500004 1.8700002,20.8999989 1.83,21.12 C1.83,21.1800003 1.78500045,21.2199999 1.695,21.24 C1.60499955,21.2600001 1.5100005,21.27 1.41,21.27 C1.3299996,21.27 1.2500004,21.2550002 1.17,21.225 C1.0899996,21.1949999 1.05,21.1500003 1.05,21.09 C1.05,20.9299992 1.0699998,20.7100014 1.11,20.43 C1.1500002,20.1499986 1.17,19.8900012 1.17,19.65 C1.17,19.4099988 1.15500015,19.1450014 1.125,18.855 C1.09499985,18.5649985 1.06500015,18.2800014 1.035,18 C1.00499985,17.7199986 0.9800001,17.4700011 0.96,17.25 C0.9399999,17.0299989 0.93,16.8700005 0.93,16.77 C0.93,16.6899996 0.9699996,16.6300002 1.05,16.59 C1.1300004,16.5499998 1.2199995,16.5250001 1.32,16.515 C1.4200005,16.5049999 1.51499955,16.5149998 1.605,16.545 C1.69500045,16.5750002 1.7499999,16.6299996 1.77,16.71 C1.9100007,17.2900029 2.0899989,17.7999978 2.31,18.24 C2.5300011,18.6800022 2.80499835,19.0499985 3.135,19.35 C3.46500165,19.6500015 3.86499765,19.8749993 4.335,20.025 C4.80500235,20.1750008 5.3699967,20.25 6.03,20.25 C6.7500036,20.25 7.33499775,20.050002 7.785,19.65 C8.23500225,19.249998 8.46,18.6900036 8.46,17.97 C8.46,17.3299968 8.23500225,16.8250018 7.785,16.455 C7.33499775,16.0849982 6.810003,15.7600014 6.21,15.48 C5.9299986,15.3599994 5.64500145,15.2400006 5.355,15.12 C5.06499855,14.9999994 4.7700015,14.8800006 4.47,14.76 C4.0299978,14.5799991 3.59500215,14.395001 3.165,14.205 C2.73499785,14.0149991 2.35500165,13.7800014 2.025,13.5 C1.69499835,13.2199986 1.430001,12.8700021 1.23,12.45 C1.029999,12.0299979 0.93,11.5100031 0.93,10.89 C0.93,10.1699964 1.08499845,9.5600025 1.395,9.06 C1.70500155,8.5599975 2.10499755,8.15500155 2.595,7.845 C3.08500245,7.53499845 3.629997,7.3100007 4.23,7.17 C4.830003,7.0299993 5.4199971,6.96 6,6.96 C6.5600028,6.96 7.05499785,7.02499935 7.485,7.155 C7.91500215,7.28500065 8.3899974,7.5199983 8.91,7.86 C8.9900004,7.9000002 9.09499935,7.89500025 9.225,7.845 C9.35500065,7.79499975 9.4599996,7.6300014 9.54,7.35 C9.5600001,7.2699996 9.6199995,7.2200001 9.72,7.2 C9.8200005,7.1799999 9.9199995,7.17499995 10.02,7.185 C10.1200005,7.19500005 10.2099996,7.2199998 10.29,7.26 C10.3700004,7.3000002 10.4000001,7.3499997 10.38,7.41 Z M17.4530769,17.73 C17.4530769,17.8900008 17.5230762,18.1049987 17.6630769,18.375 C17.8030776,18.6450014 18.0080756,18.9049988 18.2780769,19.155 C18.5480783,19.4050013 18.878075,19.6249991 19.2680769,19.815 C19.6580789,20.0050009 20.1030744,20.1 20.6030769,20.1 C21.22308,20.1 21.7480748,19.9400016 22.1780769,19.62 C22.6080791,19.2999984 22.9580756,18.8600028 23.2280769,18.3 C23.4980783,17.7399972 23.6930763,17.0900037 23.8130769,16.35 C23.9330775,15.6099963 23.9930769,14.8300041 23.9930769,14.01 C23.9930769,12.3099915 23.7630792,11.0350043 23.3030769,10.185 C22.8430746,9.33499575 22.0730823,8.91 20.9930769,8.91 C20.4730743,8.91 19.9980791,8.99499915 19.5680769,9.165 C19.1380748,9.33500085 18.7680785,9.55499865 18.4580769,9.825 C18.1480754,10.0950014 17.9030778,10.4149982 17.7230769,10.785 C17.543076,11.1550018 17.4530769,11.5299981 17.4530769,11.91 L17.4530769,17.73 Z M14.6330769,13.77 C14.6330769,12.7899951 14.6180771,11.9750033 14.5880769,11.325 C14.5580768,10.6749968 14.4780776,10.1600019 14.3480769,9.78 C14.2180763,9.3999981 14.0080784,9.12500085 13.7180769,8.955 C13.4280755,8.78499915 13.0230795,8.6900001 12.5030769,8.67 C12.4030764,8.67 12.3280772,8.6200005 12.2780769,8.52 C12.2280767,8.4199995 12.2030769,8.3200005 12.2030769,8.22 C12.2030769,8.1199995 12.2230767,8.0200005 12.2630769,7.92 C12.3030771,7.8199995 12.3630765,7.77 12.4430769,7.77 C12.8830791,7.7299998 13.4630733,7.66500045 14.1830769,7.575 C14.9030805,7.48499955 15.6030735,7.3600008 16.2830769,7.2 C16.5630783,7.1399997 16.7780762,7.1399997 16.9280769,7.2 C17.0780777,7.2600003 17.1730767,7.4299986 17.2130769,7.71 L17.3330769,9.3 C17.3330769,9.3600003 17.3630766,9.3700002 17.4230769,9.33 C17.8030788,8.6899968 18.3580733,8.13500235 19.0880769,7.665 C19.8180806,7.19499765 20.6930718,6.96 21.7130769,6.96 C22.6130814,6.96 23.4030735,7.14499815 24.0830769,7.515 C24.7630803,7.88500185 25.3280747,8.38499685 25.7780769,9.015 C26.2280792,9.64500315 26.5680758,10.3699959 26.7980769,11.19 C27.0280781,12.0100041 27.1430769,12.8599956 27.1430769,13.74 C27.1430769,14.8200054 26.9930784,15.8199954 26.6930769,16.74 C26.3930754,17.6600046 25.9630797,18.4599966 25.4030769,19.14 C24.8430741,19.8200034 24.1730808,20.3499981 23.3930769,20.73 C22.613073,21.1100019 21.7330818,21.3 20.7530769,21.3 C20.1330738,21.3 19.5830793,21.2550005 19.1030769,21.165 C18.6230745,21.0749996 18.1430793,20.9500008 17.6630769,20.79 C17.5630764,20.7499998 17.503077,20.7499998 17.4830769,20.79 C17.4630768,20.8300002 17.4530769,20.9299992 17.4530769,21.09 L17.4530769,25.68 C17.4530769,26.1800025 17.4680768,26.5999983 17.4980769,26.94 C17.5280771,27.2800017 17.6230761,27.5599989 17.7830769,27.78 C17.9430777,28.0000011 18.1930752,28.1699994 18.5330769,28.29 C18.8730786,28.4100006 19.3630737,28.4999997 20.0030769,28.56 C20.1230775,28.5800001 20.2080767,28.6349995 20.2580769,28.725 C20.3080772,28.8150005 20.3330769,28.9099995 20.3330769,29.01 C20.3330769,29.1300006 20.3030772,29.2349996 20.2430769,29.325 C20.1830766,29.4150005 20.1030774,29.46 20.0030769,29.46 C19.1030724,29.46 18.3680798,29.4250004 17.7980769,29.355 C17.2280741,29.2849996 16.6530798,29.25 16.0730769,29.25 C15.4730739,29.25 14.86308,29.2849996 14.2430769,29.355 C13.6230738,29.4250004 12.9930801,29.46 12.3530769,29.46 C12.2530764,29.46 12.1730772,29.4150005 12.1130769,29.325 C12.0530766,29.2349996 12.0230769,29.1300006 12.0230769,29.01 C12.0230769,28.9099995 12.0530766,28.8150005 12.1130769,28.725 C12.1730772,28.6349995 12.2630763,28.5800001 12.3830769,28.56 C12.9430797,28.4999997 13.3780754,28.4100006 13.6880769,28.29 C13.9980785,28.1699994 14.2230762,28.0050011 14.3630769,27.795 C14.5030776,27.584999 14.5830768,27.3250015 14.6030769,27.015 C14.623077,26.7049985 14.6330769,26.3200023 14.6330769,25.86 L14.6330769,13.77 Z M37.0961539,14.79 C37.0961539,14.5699989 37.086154,14.4350002 37.0661539,14.385 C37.0461538,14.3349997 36.9961543,14.31 36.9161539,14.31 C35.2761457,14.4500007 34.0611578,14.7949972 33.2711539,15.345 C32.4811499,15.8950027 32.0861539,16.5999957 32.0861539,17.46 C32.0861539,18.060003 32.2361524,18.5649979 32.5361539,18.975 C32.8361554,19.3850021 33.3361504,19.59 34.0361539,19.59 C34.4961562,19.59 34.9811513,19.5000009 35.4911539,19.32 C36.0011564,19.1399991 36.4561519,18.8800017 36.8561539,18.54 C37.0161547,18.3799992 37.0961539,18.2200008 37.0961539,18.06 L37.0961539,14.79 Z M39.9161539,17.76 C39.9161539,18.4600035 39.9811532,18.9499986 40.1111539,19.23 C40.2411545,19.5100014 40.496152,19.65 40.8761539,19.65 C41.096155,19.65 41.2761532,19.6250002 41.4161539,19.575 C41.5561546,19.5249997 41.7561526,19.4200008 42.0161539,19.26 C42.0761542,19.2199998 42.1411535,19.2199998 42.2111539,19.26 C42.2811542,19.3000002 42.3411536,19.3549996 42.3911539,19.425 C42.4411541,19.4950003 42.4761538,19.5749996 42.4961539,19.665 C42.516154,19.7550005 42.4961542,19.8299997 42.4361539,19.89 C41.65615,20.8300047 40.7361592,21.3 39.6761539,21.3 C39.096151,21.3 38.6011559,21.1450015 38.1911539,20.835 C37.7811518,20.5249984 37.4761549,20.1600021 37.2761539,19.74 C37.2361537,19.6399995 37.1761543,19.6299996 37.0961539,19.71 C36.5761513,20.1700023 35.9711573,20.5499985 35.2811539,20.85 C34.5911504,21.1500015 33.7261591,21.3 32.6861539,21.3 C31.5461482,21.3 30.666157,20.9950031 30.0461539,20.385 C29.4261508,19.774997 29.1161539,18.9100056 29.1161539,17.79 C29.1161539,16.3499928 29.7861472,15.2450039 31.1261539,14.475 C32.4661606,13.7049962 34.4161411,13.32 36.9761539,13.32 C37.0161541,13.32 37.0461538,13.2700005 37.0661539,13.17 C37.086154,13.0699995 37.0961539,12.8400018 37.0961539,12.48 L37.0961539,11.67 C37.0961539,11.1699975 37.0561543,10.7000022 36.9761539,10.26 C36.8961535,9.8199978 36.7611548,9.43500165 36.5711539,9.105 C36.3811529,8.77499835 36.1161556,8.51500095 35.7761539,8.325 C35.4361522,8.13499905 35.0161564,8.04 34.5161539,8.04 C33.7761502,8.04 33.1761562,8.18499855 32.7161539,8.475 C32.2561516,8.76500145 32.0261539,9.1399977 32.0261539,9.6 C32.0261539,9.8200011 32.0961532,10.034999 32.2361539,10.245 C32.3761546,10.4550011 32.4461539,10.6699989 32.4461539,10.89 C32.4461539,11.1700014 32.3061553,11.4399987 32.0261539,11.7 C31.7461525,11.9600013 31.4061559,12.09 31.0061539,12.09 C30.4661512,12.09 30.081155,11.9450015 29.8511539,11.655 C29.6211527,11.3649986 29.5061539,11.0100021 29.5061539,10.59 C29.5061539,10.0899975 29.6461525,9.61500225 29.9261539,9.165 C30.2061553,8.71499775 30.5861515,8.3300016 31.0661539,8.01 C31.5461563,7.6899984 32.1061507,7.43500095 32.7461539,7.245 C33.3861571,7.05499905 34.0561504,6.96 34.7561539,6.96 C36.3561619,6.96 37.6161493,7.3299963 38.5361539,8.07 C39.4561585,8.8100037 39.9161539,10.0399914 39.9161539,11.76 L39.9161539,17.76 Z M48.3692308,17.37 C48.3692308,17.8700025 48.3792307,18.2899983 48.3992308,18.63 C48.4192309,18.9700017 48.4742303,19.2499989 48.5642308,19.47 C48.6542312,19.6900011 48.8042297,19.8599994 49.0142308,19.98 C49.2242318,20.1000006 49.5192289,20.1899997 49.8992308,20.25 C50.0192314,20.2700001 50.1092305,20.3249996 50.1692308,20.415 C50.2292311,20.5050005 50.2592308,20.6099994 50.2592308,20.73 C50.2592308,20.8300005 50.2292311,20.9249996 50.1692308,21.015 C50.1092305,21.1050004 50.0192314,21.15 49.8992308,21.15 C49.6992298,21.15 49.3242335,21.1150004 48.7742308,21.045 C48.224228,20.9749997 47.6492338,20.94 47.0492308,20.94 C46.4092276,20.94 45.7892338,20.9749997 45.1892308,21.045 C44.5892278,21.1150004 44.0292334,21.15 43.5092308,21.15 C43.4092303,21.15 43.3292311,21.1050004 43.2692308,21.015 C43.2092305,20.9249996 43.1792308,20.8300005 43.1792308,20.73 C43.1792308,20.6099994 43.2092305,20.5050005 43.2692308,20.415 C43.3292311,20.3249996 43.4192302,20.2700001 43.5392308,20.25 C44.0392333,20.1899997 44.4242294,20.1100005 44.6942308,20.01 C44.9642321,19.9099995 45.1642301,19.760001 45.2942308,19.56 C45.4242314,19.359999 45.4992307,19.1000016 45.5192308,18.78 C45.5392309,18.4599984 45.5492308,18.0500025 45.5492308,17.55 L45.5492308,13.77 C45.5492308,12.7899951 45.5392309,11.9750032 45.5192308,11.325 C45.4992307,10.6749968 45.4292314,10.1600019 45.3092308,9.78 C45.1892302,9.3999981 44.9992321,9.13500075 44.7392308,8.985 C44.4792295,8.83499925 44.1092332,8.76 43.6292308,8.76 C43.5092302,8.76 43.4142311,8.7200004 43.3442308,8.64 C43.2742304,8.5599996 43.2392308,8.4700005 43.2392308,8.37 C43.2392308,8.2499994 43.2742304,8.1500004 43.3442308,8.07 C43.4142311,7.9899996 43.5092302,7.95 43.6292308,7.95 C44.0092327,7.95 44.5642271,7.8900006 45.2942308,7.77 C46.0242344,7.6499994 46.769227,7.4800011 47.5292308,7.26 C47.8092322,7.1799996 48.0192301,7.23499905 48.1592308,7.425 C48.2992315,7.61500095 48.3692308,7.8299988 48.3692308,8.07 L48.3692308,9.27 C48.3692308,9.3100002 48.3842306,9.33499995 48.4142308,9.345 C48.4442309,9.35500005 48.4692307,9.3400002 48.4892308,9.3 C48.6292315,9.0799989 48.8242295,8.83500135 49.0742308,8.565 C49.324232,8.29499865 49.624229,8.0400012 49.9742308,7.8 C50.3242325,7.5599988 50.7192286,7.3600008 51.1592308,7.2 C51.599233,7.0399992 52.0892281,6.96 52.6292308,6.96 C54.1292383,6.96 55.3042265,7.37499585 56.1542308,8.205 C57.004235,9.03500415 57.4292308,10.3799907 57.4292308,12.24 L57.4292308,17.37 C57.4292308,17.9100027 57.4442306,18.3499983 57.4742308,18.69 C57.5042309,19.0300017 57.5742302,19.3049989 57.6842308,19.515 C57.7942313,19.7250011 57.9642296,19.8849995 58.1942308,19.995 C58.4242319,20.1050005 58.7492287,20.1899997 59.1692308,20.25 C59.2892314,20.2700001 59.3792305,20.3249996 59.4392308,20.415 C59.4992311,20.5050005 59.5292308,20.6099994 59.5292308,20.73 C59.5292308,20.8300005 59.4992311,20.9249996 59.4392308,21.015 C59.3792305,21.1050004 59.2892314,21.15 59.1692308,21.15 C58.9092295,21.15 58.4842337,21.1150004 57.8942308,21.045 C57.3042278,20.9749997 56.7092338,20.94 56.1092308,20.94 C55.4692276,20.94 54.8592337,20.9749997 54.2792308,21.045 C53.6992279,21.1150004 53.2192327,21.15 52.8392308,21.15 C52.7392303,21.15 52.6592311,21.1050004 52.5992308,21.015 C52.5392305,20.9249996 52.5092308,20.8300005 52.5092308,20.73 C52.5092308,20.6099994 52.5392305,20.5050005 52.5992308,20.415 C52.6592311,20.3249996 52.7492302,20.2700001 52.8692308,20.25 C53.309233,20.1899997 53.6442296,20.1000006 53.8742308,19.98 C54.1042319,19.8599994 54.2742302,19.6950011 54.3842308,19.485 C54.4942313,19.274999 54.5592307,19.0150016 54.5792308,18.705 C54.5992309,18.3949984 54.6092308,18.0100023 54.6092308,17.55 L54.6092308,12.99 C54.6092308,12.4899975 54.589231,11.9900025 54.5492308,11.49 C54.5092306,10.9899975 54.3992317,10.540002 54.2192308,10.14 C54.0392299,9.739998 53.7792325,9.4100013 53.4392308,9.15 C53.0992291,8.8899987 52.6292338,8.76 52.0292308,8.76 C51.4292278,8.76 50.904233,8.85499905 50.4542308,9.045 C50.0042285,9.23500095 49.6242323,9.4899984 49.3142308,9.81 C49.0042292,10.1300016 48.7692316,10.5049978 48.6092308,10.935 C48.44923,11.3650021 48.3692308,11.8199976 48.3692308,12.3 L48.3692308,17.37 Z M65.8823077,17.37 C65.8823077,17.8700025 65.8923076,18.2899983 65.9123077,18.63 C65.9323078,18.9700017 65.9873073,19.2499989 66.0773077,19.47 C66.1673082,19.6900011 66.3173067,19.8599994 66.5273077,19.98 C66.7373088,20.1000006 67.0323058,20.1899997 67.4123077,20.25 C67.5323083,20.2700001 67.6223074,20.3249996 67.6823077,20.415 C67.742308,20.5050005 67.7723077,20.6099994 67.7723077,20.73 C67.7723077,20.8300005 67.742308,20.9249996 67.6823077,21.015 C67.6223074,21.1050004 67.5323083,21.15 67.4123077,21.15 C67.2123067,21.15 66.8373105,21.1150004 66.2873077,21.045 C65.737305,20.9749997 65.1623107,20.94 64.5623077,20.94 C63.9223045,20.94 63.3023107,20.9749997 62.7023077,21.045 C62.1023047,21.1150004 61.5423103,21.15 61.0223077,21.15 C60.9223072,21.15 60.842308,21.1050004 60.7823077,21.015 C60.7223074,20.9249996 60.6923077,20.8300005 60.6923077,20.73 C60.6923077,20.6099994 60.7223074,20.5050005 60.7823077,20.415 C60.842308,20.3249996 60.9323071,20.2700001 61.0523077,20.25 C61.5523102,20.1899997 61.9373064,20.1100005 62.2073077,20.01 C62.4773091,19.9099995 62.6773071,19.760001 62.8073077,19.56 C62.9373084,19.359999 63.0123076,19.1000016 63.0323077,18.78 C63.0523078,18.4599984 63.0623077,18.0500025 63.0623077,17.55 L63.0623077,13.77 C63.0623077,12.7899951 63.0523078,11.9750032 63.0323077,11.325 C63.0123076,10.6749968 62.9423083,10.1600019 62.8223077,9.78 C62.7023071,9.3999981 62.512309,9.13500075 62.2523077,8.985 C61.9923064,8.83499925 61.6223101,8.76 61.1423077,8.76 C61.0223071,8.76 60.9273081,8.7200004 60.8573077,8.64 C60.7873074,8.5599996 60.7523077,8.4700005 60.7523077,8.37 C60.7523077,8.2499994 60.7873074,8.1500004 60.8573077,8.07 C60.9273081,7.9899996 61.0223071,7.95 61.1423077,7.95 C61.5223096,7.95 62.0773041,7.8900006 62.8073077,7.77 C63.5373114,7.6499994 64.2823039,7.4800011 65.0423077,7.26 C65.3223091,7.1799996 65.532307,7.23499905 65.6723077,7.425 C65.8123084,7.61500095 65.8823077,7.8299988 65.8823077,8.07 L65.8823077,9.27 C65.8823077,9.3100002 65.8973076,9.33499995 65.9273077,9.345 C65.9573079,9.35500005 65.9823076,9.3400002 66.0023077,9.3 C66.1423084,9.0799989 66.3373065,8.83500135 66.5873077,8.565 C66.837309,8.29499865 67.137306,8.0400012 67.4873077,7.8 C67.8373095,7.5599988 68.2323055,7.3600008 68.6723077,7.2 C69.1123099,7.0399992 69.602305,6.96 70.1423077,6.96 C71.6423152,6.96 72.8173035,7.37499585 73.6673077,8.205 C74.517312,9.03500415 74.9423077,10.3799907 74.9423077,12.24 L74.9423077,17.37 C74.9423077,17.9100027 74.9573076,18.3499983 74.9873077,18.69 C75.0173079,19.0300017 75.0873072,19.3049989 75.1973077,19.515 C75.3073083,19.7250011 75.4773066,19.8849995 75.7073077,19.995 C75.9373089,20.1050005 76.2623056,20.1899997 76.6823077,20.25 C76.8023083,20.2700001 76.8923074,20.3249996 76.9523077,20.415 C77.012308,20.5050005 77.0423077,20.6099994 77.0423077,20.73 C77.0423077,20.8300005 77.012308,20.9249996 76.9523077,21.015 C76.8923074,21.1050004 76.8023083,21.15 76.6823077,21.15 C76.4223064,21.15 75.9973107,21.1150004 75.4073077,21.045 C74.8173048,20.9749997 74.2223107,20.94 73.6223077,20.94 C72.9823045,20.94 72.3723106,20.9749997 71.7923077,21.045 C71.2123048,21.1150004 70.7323096,21.15 70.3523077,21.15 C70.2523072,21.15 70.172308,21.1050004 70.1123077,21.015 C70.0523074,20.9249996 70.0223077,20.8300005 70.0223077,20.73 C70.0223077,20.6099994 70.0523074,20.5050005 70.1123077,20.415 C70.172308,20.3249996 70.2623071,20.2700001 70.3823077,20.25 C70.8223099,20.1899997 71.1573066,20.1000006 71.3873077,19.98 C71.6173089,19.8599994 71.7873072,19.6950011 71.8973077,19.485 C72.0073083,19.274999 72.0723076,19.0150016 72.0923077,18.705 C72.1123078,18.3949984 72.1223077,18.0100023 72.1223077,17.55 L72.1223077,12.99 C72.1223077,12.4899975 72.1023079,11.9900025 72.0623077,11.49 C72.0223075,10.9899975 71.9123086,10.540002 71.7323077,10.14 C71.5523068,9.739998 71.2923094,9.4100013 70.9523077,9.15 C70.612306,8.8899987 70.1423107,8.76 69.5423077,8.76 C68.9423047,8.76 68.41731,8.85499905 67.9673077,9.045 C67.5173055,9.23500095 67.1373093,9.4899984 66.8273077,9.81 C66.5173062,10.1300016 66.2823085,10.5049978 66.1223077,10.935 C65.9623069,11.3650021 65.8823077,11.8199976 65.8823077,12.3 L65.8823077,17.37 Z M93.9253847,21.15 C93.6053831,21.1299999 93.2803863,21.1100001 92.9503847,21.09 C92.620383,21.0699999 92.2753865,21.06 91.9153847,21.06 C91.5153827,21.06 91.1203866,21.0749999 90.7303847,21.105 C90.3403827,21.1350001 89.9753864,21.15 89.6353847,21.15 C89.495384,21.15 89.395385,21.1000005 89.3353847,21 C89.2753844,20.8999995 89.2353848,20.8100004 89.2153847,20.73 C89.0553839,19.8899958 88.7903865,19.1050037 88.4203847,18.375 C88.0503828,17.6449963 87.6253871,17.0000028 87.1453847,16.44 C86.6653823,15.8799972 86.1503874,15.4400016 85.6003847,15.12 C85.0503819,14.7999984 84.5053874,14.64 83.9653847,14.64 L83.9653847,16.98 C83.9653847,17.5600029 83.9753846,18.0399981 83.9953847,18.42 C84.0153848,18.8000019 84.0803841,19.1099988 84.1903847,19.35 C84.3003852,19.5900012 84.4753835,19.7799993 84.7153847,19.92 C84.9553859,20.0600007 85.3053824,20.1699996 85.7653847,20.25 C85.8853853,20.2700001 85.9753844,20.3299995 86.0353847,20.43 C86.095385,20.5300005 86.1253847,20.6299995 86.1253847,20.73 C86.1253847,20.8300005 86.095385,20.9249996 86.0353847,21.015 C85.9753844,21.1050004 85.8853853,21.15 85.7653847,21.15 C85.2053819,21.15 84.695387,21.1150004 84.2353847,21.045 C83.7753824,20.9749997 83.2453877,20.94 82.6453847,20.94 C82.0053815,20.94 81.3753878,20.9749997 80.7553847,21.045 C80.1353816,21.1150004 79.5053879,21.15 78.8653847,21.15 C78.7653842,21.15 78.685385,21.1050004 78.6253847,21.015 C78.5653844,20.9249996 78.5353847,20.8300005 78.5353847,20.73 C78.5353847,20.6099994 78.5653844,20.5050005 78.6253847,20.415 C78.685385,20.3249996 78.7753841,20.2700001 78.8953847,20.25 C79.4553875,20.1899997 79.8903831,20.1000006 80.2003847,19.98 C80.5103862,19.8599994 80.735384,19.6950011 80.8753847,19.485 C81.0153854,19.274999 81.0953846,19.0150016 81.1153847,18.705 C81.1353848,18.3949984 81.1453847,18.0100023 81.1453847,17.55 L81.1453847,5.76 C81.1453847,4.8999957 81.1253849,4.21500255 81.0853847,3.705 C81.0453845,3.19499745 80.9353856,2.8000014 80.7553847,2.52 C80.5753838,2.2399986 80.3053865,2.0500005 79.9453847,1.95 C79.5853829,1.8499995 79.0853879,1.7700003 78.4453847,1.71 C78.3453842,1.71 78.2703849,1.6600005 78.2203847,1.56 C78.1703844,1.4599995 78.1403847,1.3600005 78.1303847,1.26 C78.1203846,1.1599995 78.1403844,1.0600005 78.1903847,0.96 C78.2403849,0.8599995 78.3253841,0.81 78.4453847,0.81 C79.1653883,0.7699998 79.9603803,0.7100004 80.8303847,0.63 C81.700389,0.5499996 82.505381,0.4000011 83.2453847,0.18 C83.5253861,0.0999996 83.7103842,0.11499945 83.8003847,0.225 C83.8903851,0.33500055 83.9453846,0.4499994 83.9653847,0.57 L83.9653847,13.35 C84.3453866,13.1099988 84.705383,12.8400015 85.0453847,12.54 C85.3853864,12.2399985 85.6953833,11.9300016 85.9753847,11.61 C86.2553861,11.2899984 86.5153835,10.9800015 86.7553847,10.68 C86.9953859,10.3799985 87.2053838,10.1200011 87.3853847,9.9 C87.7853867,9.3799974 87.9603849,9.00500115 87.9103847,8.775 C87.8603844,8.54499885 87.5153879,8.4100002 86.8753847,8.37 C86.7753842,8.37 86.695385,8.3200005 86.6353847,8.22 C86.5753844,8.1199995 86.5453847,8.0200005 86.5453847,7.92 C86.5453847,7.7999994 86.5753844,7.69500045 86.6353847,7.605 C86.695385,7.51499955 86.7753842,7.47 86.8753847,7.47 C87.1953863,7.47 87.4703835,7.4799999 87.7003847,7.5 C87.9303858,7.5200001 88.1403837,7.54499985 88.3303847,7.575 C88.5203856,7.60500015 88.7053838,7.6299999 88.8853847,7.65 C89.0653856,7.6700001 89.2753835,7.68 89.5153847,7.68 C89.975387,7.68 90.4453823,7.64500035 90.9253847,7.575 C91.4053871,7.50499965 91.8753824,7.47 92.3353847,7.47 C92.4153851,7.47 92.4853844,7.51499955 92.5453847,7.605 C92.605385,7.69500045 92.6353847,7.7999994 92.6353847,7.92 C92.6353847,8.0200005 92.6103849,8.11499955 92.5603847,8.205 C92.5103844,8.29500045 92.4353852,8.3499999 92.3353847,8.37 C91.9353827,8.4100002 91.605386,8.4699996 91.3453847,8.55 C91.0853834,8.6300004 90.8453858,8.7399993 90.6253847,8.88 C90.4053836,9.0200007 90.1953857,9.18499905 89.9953847,9.375 C89.7953837,9.56500095 89.5553861,9.7899987 89.2753847,10.05 C89.0953838,10.2100008 88.8553862,10.4299986 88.5553847,10.71 C88.2553832,10.9900014 87.9303864,11.2849985 87.5803847,11.595 C87.2303829,11.9050015 86.8903863,12.1999986 86.5603847,12.48 C86.230383,12.7600014 85.9453859,12.9899991 85.7053847,13.17 C85.6253843,13.2300003 85.5953846,13.2899997 85.6153847,13.35 C85.6353848,13.4100003 85.6753844,13.44 85.7353847,13.44 C86.5353887,13.4800002 87.200382,13.6149988 87.7303847,13.845 C88.2603873,14.0750012 88.7053829,14.3649983 89.0653847,14.715 C89.4253865,15.0650018 89.7303834,15.4599978 89.9803847,15.9 C90.2303859,16.3400022 90.4803834,16.7949977 90.7303847,17.265 C90.9803859,17.7350024 91.2603831,18.1949977 91.5703847,18.645 C91.8803862,19.0950023 92.2753823,19.5099981 92.7553847,19.89 C92.8953854,19.9900005 93.0703836,20.0699997 93.2803847,20.13 C93.4903857,20.1900003 93.7053836,20.2299999 93.9253847,20.25 C94.0453853,20.25 94.1353844,20.2999995 94.1953847,20.4 C94.255385,20.5000005 94.2853847,20.6099994 94.2853847,20.73 C94.2853847,20.8300005 94.255385,20.9249996 94.1953847,21.015 C94.1353844,21.1050004 94.0453853,21.15 93.9253847,21.15 Z M108.888462,13.74 C108.888462,14.9600061 108.718463,16.0399953 108.378462,16.98 C108.03846,17.9200047 107.553465,18.7099968 106.923462,19.35 C106.293458,19.9900032 105.538466,20.4749983 104.658462,20.805 C103.778457,21.1350016 102.798467,21.3 101.718462,21.3 C100.778457,21.3 99.9084656,21.1450015 99.1084616,20.835 C98.3084576,20.5249984 97.6184645,20.0650031 97.0384616,19.455 C96.4584587,18.8449969 95.9984633,18.0750047 95.6584616,17.145 C95.3184599,16.2149954 95.1484616,15.1200063 95.1484616,13.86 C95.1484616,12.8399949 95.3184599,11.9050042 95.6584616,11.055 C95.9984633,10.2049958 96.4734585,9.480003 97.0834616,8.88 C97.6934646,8.279997 98.4284573,7.8100017 99.2884616,7.47 C100.148466,7.1299983 101.088456,6.96 102.108462,6.96 C103.088466,6.96 103.993457,7.1099985 104.823462,7.41 C105.653466,7.7100015 106.368459,8.14499715 106.968462,8.715 C107.568465,9.28500285 108.03846,9.9899958 108.378462,10.83 C108.718463,11.6700042 108.888462,12.6399945 108.888462,13.74 Z M105.738462,14.07 C105.738462,13.3099962 105.688462,12.5700036 105.588462,11.85 C105.488461,11.1299964 105.308463,10.4900028 105.048462,9.93 C104.78846,9.3699972 104.428464,8.9200017 103.968462,8.58 C103.508459,8.2399983 102.918465,8.07 102.198462,8.07 C101.398458,8.07 100.748464,8.2399983 100.248462,8.58 C99.7484591,8.9200017 99.353463,9.37499715 99.0634616,9.945 C98.7734601,10.5150029 98.5734621,11.1599964 98.4634616,11.88 C98.353461,12.6000036 98.2984616,13.3499961 98.2984616,14.13 C98.2984616,14.8100034 98.3484611,15.5099964 98.4484616,16.23 C98.5484621,16.9500036 98.7384602,17.5999971 99.0184616,18.18 C99.298463,18.7600029 99.6834591,19.2399981 100.173462,19.62 C100.663464,20.0000019 101.288458,20.19 102.048462,20.19 C102.828465,20.19 103.458459,20.0100018 103.938462,19.65 C104.418464,19.2899982 104.79346,18.8200029 105.063462,18.24 C105.333463,17.6599971 105.513461,17.0050036 105.603462,16.275 C105.693462,15.5449963 105.738462,14.8100037 105.738462,14.07 Z"></path>
    </g>
</svg>
