
<svg id="pulser" viewBox="0 0 634 438" version="1.1" xmlns="http://www.w3.org/2000/svg" xmlns:xlink="http://www.w3.org/1999/xlink">
    <!-- Generator: Sketch 51.2 (57519) - http://www.bohemiancoding.com/sketch -->
    <desc>Created with Sketch.</desc>
    <defs></defs>
    <g id="Symbols" stroke="none" stroke-width="1" fill="none" fill-rule="evenodd" stroke-linecap="round" stroke-linejoin="round">
        <g id="pulser" stroke="#B1DEFF" stroke-width="0.6">
            <path d="M175.016394,218.557261 L165.09744,221.837389 L175.016394,218.557261 Z M160.958372,223.206143 L157.505542,224.347968 L160.958372,223.206143 Z M152.312679,226.06524 L149.96022,226.843182 L152.312679,226.06524 Z M144.581063,228.622048 L142.228604,229.399991 L144.581063,228.622048 Z M140.622109,229.931239 L138.26965,230.709181 L140.622109,229.931239 Z M130.887719,233.150359 L128.535258,233.928301 L130.887719,233.150359 Z M123.388975,235.63014 L121.036516,236.408083 L123.388975,235.63014 Z M117.566979,237.555457 L115.21452,238.3334 L117.566979,237.555457 Z M111.465534,239.573166 L109.113074,240.351109 L111.465534,239.573166 Z M105.457224,241.560078 L103.104764,242.33802 L105.457224,241.560078 Z M94.0926837,245.318275 L91.7402243,246.096217 L94.0926837,245.318275 Z M90.087152,246.642875 L87.7346927,247.420818 L90.087152,246.642875 Z M86.3144897,247.890494 L83.9620303,248.668436 L86.3144897,247.890494 Z M80.3061799,249.877383 L77.9537205,250.655325 L80.3061799,249.877383 Z M167.996376,219.571948 L168.772904,221.928698 L167.996376,219.571948 Z M153.70294,224.298715 L154.479466,226.655465 L153.70294,224.298715 Z M147.906521,226.215549 L148.68305,228.572299 L147.906521,226.215549 Z M145.864609,226.890811 L146.641135,229.247561 L145.864609,226.890811 Z M135.918472,230.179941 L136.695,232.536714 L135.918472,230.179941 Z M134.074167,230.789841 L134.850693,233.146591 L134.074167,230.789841 Z M132.229858,231.399763 L133.006386,233.75649 L132.229858,231.399763 Z M126.762784,233.207666 L127.539312,235.564439 L126.762784,233.207666 Z M124.720873,233.882906 L125.497399,236.239679 L124.720873,233.882906 Z M118.792718,235.84333 L119.569244,238.20008 L118.792718,235.84333 Z M112.732826,237.847298 L113.50935,240.204071 L112.732826,237.847298 Z M106.804668,239.807722 L107.581194,242.16445 L106.804668,239.807722 Z M100.810643,241.789896 L101.587172,244.146646 L100.810643,241.789896 Z M98.9663387,242.399795 L99.7428647,244.756568 L98.9663387,242.399795 Z M96.9902929,243.053263 L97.7668189,245.410013 L96.9902929,243.053263 Z M95.0801188,243.68498 L95.8566448,246.041707 L95.0801188,243.68498 Z M81.7088232,248.106774 L82.4853515,250.463525 L81.7088232,248.106774 Z M75.8465372,250.045381 L76.6230633,252.402153 L75.8465372,250.045381 Z M73.8046221,250.720665 L74.5811503,253.077415 L73.8046221,250.720665 Z M166.112952,211.905245 L175.391062,218.464982 L166.112952,211.905245 Z M149.847939,200.405641 L163.036459,209.73012 L149.847939,200.405641 Z M137.833355,191.911178 L139.857389,193.342182 L137.833355,191.911178 Z M134.489673,189.547141 L136.513706,190.978166 L134.489673,189.547141 Z M131.259336,187.263244 L133.283367,188.694269 L131.259336,187.263244 Z M118.508023,178.247889 L120.532057,179.678915 L118.508023,178.247889 Z M114.824303,175.643452 L116.848336,177.074477 L114.824303,175.643452 Z M111.253929,173.119155 L113.277962,174.550181 L111.253929,173.119155 Z M100.429478,165.466118 L102.453509,166.897137 L100.429478,165.466118 Z M97.0857954,163.102087 L99.1098267,164.533106 L97.0857954,163.102087 Z M92.8353638,160.096975 L94.859395,161.527992 L92.8353638,160.096975 Z M89.2083154,157.532601 L91.2323489,158.963621 L89.2083154,157.532601 Z M84.5611743,154.247009 L86.5852055,155.678028 L84.5611743,154.247009 Z M78.2138447,149.75936 L80.2378782,151.190379 L78.2138447,149.75936 Z M151.347321,199.946908 L149.918912,201.974634 L151.347321,199.946908 Z M146.700178,196.66132 L145.27177,198.689046 L146.700178,196.66132 Z M145.245617,195.632915 L143.817207,197.660664 L145.245617,195.632915 Z M143.791,194.604488 L142.362592,196.632215 L143.791,194.604488 Z M142.336421,193.576083 L140.908011,195.60381 L142.336421,193.576083 Z M130.491857,185.201809 L129.063447,187.229536 L130.491857,185.201809 Z M129.007064,184.152038 L127.578654,186.179765 L129.007064,184.152038 Z M127.522232,183.102245 L126.093825,185.129971 L127.522232,183.102245 Z M126.037421,182.052474 L124.609011,184.0802 L126.037421,182.052474 Z M124.552628,181.002703 L123.124218,183.030429 L124.552628,181.002703 Z M123.067799,179.952909 L121.639389,181.980636 L123.067799,179.952909 Z M110.656523,171.177954 L109.228114,173.205681 L110.656523,171.177954 Z M109.197197,170.146197 L107.768787,172.173937 L109.197197,170.146197 Z M107.737889,169.114446 L106.309479,171.142171 L107.737889,169.114446 Z M106.278578,168.082696 L104.850168,170.110424 L106.278578,168.082696 Z M104.819287,167.050956 L103.390878,169.078685 L104.819287,167.050956 Z M89.0076579,155.871916 L87.5792483,157.899647 L89.0076579,155.871916 Z M84.0771509,152.38598 L82.6487435,154.413711 L84.0771509,152.38598 Z M82.4336568,151.224006 L81.0052472,153.251737 L82.4336568,151.224006 Z M175.448813,218.693627 L173.851554,207.500259 L175.448813,218.693627 Z M173.308852,203.697095 L168.236612,168.151515 L173.308852,203.697095 Z M167.222728,161.046354 L166.872141,158.589497 L167.222728,161.046354 Z M165.976056,152.309838 L165.625469,149.852981 L165.976056,152.309838 Z M164.778464,143.917283 L164.427878,141.460427 L164.778464,143.917283 Z M164.110953,139.239452 L163.760367,136.782595 L164.110953,139.239452 Z M163.20785,132.910635 L162.857264,130.453777 L163.20785,132.910635 Z M161.990627,124.380495 L161.64004,121.923639 L161.990627,124.380495 Z M161.077707,117.982887 L160.727122,115.526029 L161.077707,117.982887 Z M160.42983,113.442637 L160.079243,110.985781 L160.42983,113.442637 Z M159.536544,107.182613 L159.185957,104.725757 L159.536544,107.182613 Z M158.947563,103.055116 L158.596977,100.59826 L158.947563,103.055116 Z M158.348766,98.8588281 L157.99818,96.401972 L158.348766,98.8588281 Z M157.710701,94.387372 L157.360117,91.9305159 L157.710701,94.387372 Z M156.846866,88.3337215 L156.49628,85.8768653 L156.846866,88.3337215 Z M155.678725,80.1475432 L155.328138,77.6906871 L155.678725,80.1475432 Z M154.903235,74.7130225 L154.552651,72.2561641 L154.903235,74.7130225 Z M154.245541,70.1039802 L153.894954,67.6471241 L154.245541,70.1039802 Z M170.305602,173.882139 L167.853226,174.233363 L170.305602,173.882139 Z M168.78407,163.21945 L166.331694,163.570677 L168.78407,163.21945 Z M167.792619,156.271504 L165.340243,156.622731 L167.792619,156.271504 Z M167.517764,154.345353 L165.065388,154.696577 L167.517764,154.345353 Z M166.585213,147.810158 L164.132837,148.161385 L166.585213,147.810158 Z M166.300541,145.815212 L163.848165,146.166439 L166.300541,145.815212 Z M164.729927,134.808564 L162.277551,135.159789 L164.729927,134.808564 Z M163.80719,128.342162 L161.354814,128.693389 L163.80719,128.342162 Z M163.502886,126.209632 L161.05051,126.560859 L163.502886,126.209632 Z M162.599783,119.880816 L160.147407,120.232041 L162.599783,119.880816 Z M161.019353,108.805374 L158.566977,109.156601 L161.019353,108.805374 Z M158.319863,89.8877132 L155.867487,90.2389402 L158.319863,89.8877132 Z M157.475659,83.9716466 L155.023283,84.3228736 L157.475659,83.9716466 Z M157.190987,81.9767028 L154.738611,82.3279298 L157.190987,81.9767028 Z M154.844885,65.5355317 L152.392507,65.8867565 L154.844885,65.5355317 Z M175.451824,218.593857 L179.502933,208.040148 L175.451824,218.593857 Z M180.779788,204.713768 L181.668975,202.397313 L180.779788,204.713768 Z M183.518467,197.579125 L184.407654,195.26267 L183.518467,197.579125 Z M188.074627,185.709705 L188.963812,183.393251 L188.074627,185.709705 Z M189.518658,181.947808 L190.407845,179.631354 L189.518658,181.947808 Z M194.074818,170.078373 L194.964003,167.761918 L194.074818,170.078373 Z M195.942092,165.213862 L196.83128,162.897407 L195.942092,165.213862 Z M199.726448,155.355098 L200.615633,153.038644 L199.726448,155.355098 Z M201.294965,151.268893 L202.18415,148.952439 L201.294965,151.268893 Z M204.43199,143.096507 L205.321177,140.780053 L204.43199,143.096507 Z M205.950713,139.140025 L206.839898,136.82357 L205.950713,139.140025 Z M207.444537,135.248402 L208.333725,132.93195 L207.444537,135.248402 Z M209.286917,130.448752 L210.176102,128.132298 L209.286917,130.448752 Z M210.830537,126.427409 L211.719722,124.110954 L210.830537,126.427409 Z M213.793281,118.709047 L214.682469,116.392593 L213.793281,118.709047 Z M181.957269,205.103506 L179.645039,204.212708 L181.957269,205.103506 Z M183.824545,200.238997 L181.512315,199.348176 L183.824545,200.238997 Z M186.239558,193.947546 L183.927328,193.056748 L186.239558,193.947546 Z M186.969871,192.044994 L184.657641,191.154174 L186.969871,192.044994 Z M187.700178,190.142442 L185.387947,189.251622 L187.700178,190.142442 Z M188.430491,188.239868 L186.11826,187.34907 L188.430491,188.239868 Z M192.289537,178.18652 L189.977307,177.295722 L192.289537,178.18652 Z M193.036452,176.240694 L190.724222,175.349896 L193.036452,176.240694 Z M193.78337,174.29489 L191.47114,173.40407 L193.78337,174.29489 Z M194.53026,172.349132 L192.218033,171.458311 L194.53026,172.349132 Z M198.613381,161.712029 L196.301151,160.82122 L198.613381,161.712029 Z M199.360299,159.76621 L197.048069,158.875398 L199.360299,159.76621 Z M200.107199,157.820429 L197.794969,156.929619 L200.107199,157.820429 Z M204.016039,147.637362 L201.703809,146.74655 L204.016039,147.637362 Z M204.73805,145.756422 L202.42582,144.865611 L204.73805,145.756422 Z M213.427124,123.120181 L211.114896,122.22937 L213.427124,123.120181 Z M214.099342,121.368963 L211.787111,120.478151 L214.099342,121.368963 Z M216.414767,115.336958 L214.102537,114.446146 L216.414767,115.336958 Z M178.727123,215.359394 L175.805336,218.774106 L178.727123,215.359394 Z M189.623727,203.12052 L187.982577,204.97964 L189.623727,203.12052 Z M192.564653,199.789018 L190.923503,201.648138 L192.564653,199.789018 Z M197.803173,193.854793 L196.162023,195.713891 L197.803173,193.854793 Z M200.790051,190.471218 L199.148901,192.330338 L200.790051,190.471218 Z M205.063576,185.630151 L203.422426,187.489248 L205.063576,185.630151 Z M210.945412,178.967147 L209.304262,180.826267 L210.945412,178.967147 Z M215.081079,174.282233 L213.439929,176.14133 L215.081079,174.282233 Z M222.341481,166.057591 L220.700332,167.916699 L222.341481,166.057591 Z M226.477153,161.372674 L224.836003,163.231783 L226.477153,161.372674 Z M229.464022,157.989115 L227.822872,159.848223 L229.464022,157.989115 Z M233.829446,153.043924 L232.188296,154.90303 L233.829446,153.043924 Z M241.04391,144.871337 L239.40276,146.730445 L241.04391,144.871337 Z M244.030756,141.487811 L242.389607,143.346919 L244.030756,141.487811 Z M247.01767,138.10422 L245.376521,139.963326 L247.01767,138.10422 Z M187.617285,207.266605 L185.761566,205.622458 L187.617285,207.266605 Z M194.464116,199.510443 L192.6084,197.866296 L194.464116,199.510443 Z M195.796715,198.000879 L193.940999,196.356731 L195.796715,198.000879 Z M203.011166,189.828287 L201.155447,188.18414 L203.011166,189.828287 Z M207.330642,184.935147 L205.474924,183.290999 L207.330642,184.935147 Z M208.709192,183.373509 L206.853476,181.729361 L208.709192,183.373509 Z M212.982717,178.532442 L211.127001,176.888295 L212.982717,178.532442 Z M217.348145,173.587251 L215.492429,171.943104 L217.348145,173.587251 Z M218.70372,172.051628 L216.848004,170.407487 L218.70372,172.051628 Z M220.059297,170.516028 L218.203578,168.871881 L220.059297,170.516028 Z M224.424725,165.570837 L222.569007,163.92669 L224.424725,165.570837 Z M231.77704,157.242087 L229.921311,155.597937 L231.77704,157.242087 Z M236.142464,152.296894 L234.286734,150.652746 L236.142464,152.296894 Z M237.475054,150.787331 L235.619324,149.143183 L237.475054,150.787331 Z M238.807666,149.277737 L236.951936,147.633589 L238.807666,149.277737 Z M174.946047,218.644689 L181.82378,209.5614 L174.946047,218.644689 Z M184.696348,205.767645 L287.469874,70.0364969 L184.696348,205.767645 Z M294.124399,61.2479999 L295.621572,59.2706929 L294.124399,61.2479999 Z M296.821873,57.6854864 L298.319046,55.7081817 L296.821873,57.6854864 Z M300.408634,52.9485259 L301.905807,50.9712189 L300.408634,52.9485259 Z M309.627466,40.7733692 L311.124662,38.7960622 L309.627466,40.7733692 Z M312.384216,37.1325742 L313.881411,35.1552671 L312.384216,37.1325742 Z M315.140965,33.4917768 L316.638161,31.5144698 L315.140965,33.4917768 Z M321.543773,25.0357194 L323.040946,23.0584124 L321.543773,25.0357194 Z M325.812311,19.398347 L327.309484,17.42104 L325.812311,19.398347 Z M328.628336,15.6792478 L330.125532,13.7019408 L328.628336,15.6792478 Z M331.385108,12.0384527 L332.882281,10.0611457 L331.385108,12.0384527 Z M339.003239,1.97730476 L340.500434,0 L339.003239,1.97730476 Z M284.506697,76.0031862 L282.533003,74.5032646 L284.506697,76.0031862 Z M290.524148,68.0560492 L288.550454,66.5561299 L290.524148,68.0560492 Z M291.739516,66.4509452 L289.765822,64.9510236 L291.739516,66.4509452 Z M292.954839,64.8458931 L290.981122,63.3459715 L292.954839,64.8458931 Z M294.170184,63.2407868 L292.19649,61.7408674 L294.170184,63.2407868 Z M300.0987,55.4111038 L298.125005,53.9111822 L300.0987,55.4111038 Z M304.278303,49.8911831 L302.304608,48.3912615 L304.278303,49.8911831 Z M305.515876,48.2567415 L303.542182,46.7568199 L305.515876,48.2567415 Z M306.75345,46.6223 L304.779755,45.1223784 L306.75345,46.6223 Z M307.991023,44.9878584 L306.017329,43.4879368 L307.991023,44.9878584 Z M309.228619,43.3533988 L307.254925,41.8534772 L309.228619,43.3533988 Z M318.862446,30.6301696 L316.888752,29.130248 L318.862446,30.6301696 Z M320.077814,29.0250633 L318.104097,27.5251439 L320.077814,29.0250633 Z M321.293137,27.4199954 L319.319442,25.9200738 L321.293137,27.4199954 Z M325.383827,22.0175083 L323.41011,20.5175867 L325.383827,22.0175083 Z M335.106589,9.17682738 L333.132895,7.67690578 L335.106589,9.17682738 Z M336.302184,7.59782099 L334.328489,6.09789938 L336.302184,7.59782099 Z M337.497778,6.01881685 L335.524083,4.51889525 L337.497778,6.01881685 Z M338.69335,4.4398646 L336.719633,2.93994526 L338.69335,4.4398646 Z M175.405255,218.810498 L185.98056,216.109608 L175.405255,218.810498 Z M189.521018,215.205385 L210.219738,209.919032 L189.521018,215.205385 Z M193.933089,215.359169 L193.321122,212.954248 L193.933089,215.359169 Z M214.797796,210.030422 L214.185829,207.625501 L214.797796,210.030422 Z M215.946448,208.456465 L218.346981,207.843361 L215.946448,208.456465 Z M220.38261,207.323485 L222.783147,206.710404 L220.38261,207.323485 Z M224.381868,206.302074 L226.782402,205.688993 L224.381868,206.302074 Z M228.717226,205.19486 L231.117738,204.581779 L228.717226,205.19486 Z M232.750082,204.164876 L235.150617,203.551795 L232.750082,204.164876 Z M240.748592,202.122101 L243.149127,201.50902 L240.748592,202.122101 Z M237.415463,204.253974 L236.8035,201.849054 L237.415463,204.253974 Z M239.398279,203.747567 L238.786316,201.342647 L239.398279,203.747567 Z M245.044291,202.305598 L244.432328,199.900678 L245.044291,202.305598 Z M255.496148,199.63625 L254.884162,197.231329 L255.496148,199.63625 Z M267.762768,196.503407 L267.150806,194.098487 L267.762768,196.503407 Z M246.562634,200.637219 L248.963169,200.024138 L246.562634,200.637219 Z M250.864368,199.538578 L253.264903,198.925497 L250.864368,199.538578 Z M256.947288,197.985018 L259.347823,197.371937 L256.947288,197.985018 Z M263.09741,196.414309 L265.497922,195.801229 L263.09741,196.414309 Z M269.314735,194.826432 L271.71527,194.213351 L269.314735,194.826432 Z M273.549244,193.744961 L275.949779,193.13188 L273.549244,193.744961 Z M278.455893,192.491815 L280.856427,191.878734 L278.455893,192.491815 Z M283.020447,192.606656 L282.408484,190.201736 L283.020447,192.606656 Z M284.969661,192.108845 L284.357698,189.703925 L284.969661,192.108845 Z M286.885252,191.619608 L286.273289,189.214688 L286.885252,191.619608 Z M288.370038,189.959802 L290.770573,189.346699 L288.370038,189.959802 Z M294.889842,188.294671 L297.290355,187.681568 L294.889842,188.294671 Z M307.156486,185.161806 L309.557021,184.548726 L307.156486,185.161806 Z M302.82115,186.269043 L305.221685,185.655962 L302.82115,186.269043 Z M293.1362,190.023134 L292.524238,187.618214 L293.1362,190.023134 Z M299.487976,188.400917 L298.87599,185.996019 L299.487976,188.400917 Z M301.403566,187.911679 L300.791603,185.506781 L301.403566,187.911679 Z M261.542133,197.778529 L260.930148,195.373586 L261.542133,197.778529 Z M175.113061,218.580162 L185.071712,221.653169 L175.113061,218.580162 Z M188.967166,222.855212 L306.945937,259.260613 L188.967166,222.855212 Z M313.859115,261.393863 L316.226657,262.124425 L313.859115,261.393863 Z M317.969151,262.662103 L320.336693,263.392687 L317.969151,262.662103 Z M322.012885,263.909924 L324.380427,264.640486 L322.012885,263.909924 Z M329.503772,266.221415 L331.871314,266.951977 L329.503772,266.221415 Z M333.481227,267.448772 L335.848768,268.179334 L333.481227,267.448772 Z M337.3261,268.635202 L339.693642,269.365764 L337.3261,268.635202 Z M350.12023,272.583169 L352.487772,273.313731 L350.12023,272.583169 Z M354.097685,273.810504 L356.465227,274.541089 L354.097685,273.810504 Z M359.864973,275.59016 L362.232537,276.320722 L359.864973,275.59016 Z M364.04131,276.878887 L366.408852,277.609449 L364.04131,276.878887 Z M367.952486,278.085758 L370.320028,278.816342 L367.952486,278.085758 Z M374.581562,280.131354 L376.949104,280.861916 L374.581562,280.131354 Z M383.994863,283.03607 L386.362405,283.766632 L383.994863,283.03607 Z M390.226196,284.958906 L392.593738,285.689468 L390.226196,284.958906 Z M396.258669,286.820372 L398.62621,287.550956 L396.258669,286.820372 Z M291.552322,255.808968 L292.281551,253.437101 L291.552322,255.808968 Z M312.130336,262.158832 L312.859566,259.786965 L312.130336,262.158832 Z M325.95836,266.42585 L326.687612,264.053961 L325.95836,266.42585 Z M327.880234,267.018873 L328.609463,264.647007 L327.880234,267.018873 Z M341.286394,271.155708 L342.015646,268.783841 L341.286394,271.155708 Z M343.020758,271.690882 L343.749988,269.319015 L343.020758,271.690882 Z M344.708233,272.211594 L345.437463,269.839727 L344.708233,272.211594 Z M346.395709,272.732328 L347.124961,270.360438 L346.395709,272.732328 Z M348.083207,273.253039 L348.812436,270.881172 L348.083207,273.253039 Z M358.208126,276.377353 L358.937378,274.005464 L358.208126,276.377353 Z M371.286178,280.412907 L372.015408,278.04104 L371.286178,280.412907 Z M373.067408,280.962565 L373.79666,278.590698 L373.067408,280.962565 Z M378.457988,282.625959 L379.18724,280.254092 L378.457988,282.625959 Z M380.286106,283.19008 L381.015336,280.818213 L380.286106,283.19008 Z M382.161092,283.768663 L382.890344,281.396773 L382.161092,283.768663 Z M388.114178,285.605627 L388.84343,283.23376 L388.114178,285.605627 Z M394.161019,287.471538 L394.890271,285.099671 L394.161019,287.471538 Z M175.781601,218.79396 L178.565261,221.988826 L175.781601,218.79396 Z M179.99233,223.626724 L181.621404,225.496471 L179.99233,223.626724 Z M186.332644,230.903689 L187.961718,232.773436 L186.332644,230.903689 Z M191.669464,237.028902 L193.298538,238.898649 L191.669464,237.028902 Z M198.511532,244.881743 L200.140606,246.75149 L198.511532,244.881743 Z M201.202748,247.970544 L202.831824,249.840268 L201.202748,247.970544 Z M206.722008,254.305156 L208.351084,256.174903 L206.722008,254.305156 Z M209.550068,257.55099 L211.179142,259.420737 L209.550068,257.55099 Z M212.150055,260.53508 L213.779131,262.404827 L212.150055,260.53508 Z M216.20968,265.194432 L217.838754,267.064178 L216.20968,265.194432 Z M220.679831,270.324948 L222.308905,272.194695 L220.679831,270.324948 Z M226.746459,277.287803 L228.375537,279.157527 L226.746459,277.287803 Z M232.037676,283.360672 L233.666732,285.230396 L232.037676,283.360672 Z M179.873748,225.377681 L181.740076,223.745627 L179.873748,225.377681 Z M184.024601,230.141721 L185.890927,228.509666 L184.024601,230.141721 Z M188.12984,234.853416 L189.996166,233.221384 L188.12984,234.853416 Z M189.452633,236.371645 L191.318961,234.73959 L189.452633,236.371645 Z M203.091158,252.02496 L204.957484,250.392905 L203.091158,252.02496 Z M204.413951,253.543165 L206.280277,251.911134 L204.413951,253.543165 Z M213.856009,264.380097 L215.722335,262.748042 L213.856009,264.380097 Z M218.32616,269.510613 L220.192486,267.878558 L218.32616,269.510613 Z M222.203326,273.960565 L224.069659,272.328511 L222.203326,273.960565 Z M223.48051,275.426404 L225.346824,273.794372 L223.48051,275.426404 Z M224.803303,276.944633 L226.669617,275.312578 L224.803303,276.944633 Z M228.726077,281.446907 L230.592414,279.814875 L228.726077,281.446907 Z M230.003264,282.912768 L231.869579,281.280714 L230.003264,282.912768 Z M234.017271,287.519775 L235.883608,285.887721 L234.017271,287.519775 Z M235.340064,289.037981 L237.206401,287.405927 L235.340064,289.037981 Z M236.662857,290.556187 L238.529194,288.924133 L236.662857,290.556187 Z M237.985649,292.074393 L239.851987,290.442339 L237.985649,292.074393 Z M194.63428,240.431813 L196.26337,242.301583 L194.63428,240.431813 Z M196.157805,244.067408 L198.024117,242.435399 L196.157805,244.067408 Z M181.521217,228.594771 L175.450515,218.712511 L181.521217,228.594771 Z M310.15966,438 L183.770886,232.256898 L310.15966,438 Z M306.892292,435.04876 L309.002058,433.747985 L306.892292,435.04876 Z M251.902,349.765204 L250.603575,347.651561 L251.902,349.765204 Z M253.974247,353.138559 L252.675844,351.024916 L253.974247,353.138559 Z M256.155585,356.689433 L254.85716,354.575812 L256.155585,356.689433 Z M258.373272,360.29951 L257.074847,358.185866 L258.373272,360.29951 Z M260.536413,363.820804 L259.237988,361.707184 L260.536413,363.820804 Z M264.299198,369.946085 L263.000772,367.832442 L264.299198,369.946085 Z M269.807021,378.912074 L268.508619,376.798431 L269.807021,378.912074 Z M272.733624,383.676181 L271.435221,381.562538 L272.733624,383.676181 Z M276.132852,389.209635 L274.83445,387.095991 L276.132852,389.209635 Z M280.531855,396.370563 L279.23343,394.256942 L280.531855,396.370563 Z M282.876786,400.187782 L281.57836,398.074139 L282.876786,400.187782 Z M283.822307,401.726948 L283.767896,401.638415 L283.822307,401.726948 Z M285.154333,403.895327 L284.454313,402.755782 L285.154333,403.895327 Z M288.239191,408.917049 L286.940788,406.803406 L288.239191,408.917049 Z M290.42429,412.474082 L289.125888,410.360439 L290.42429,412.474082 Z M296.54259,422.433798 L295.244188,420.320154 L296.54259,422.433798 Z M298.753408,426.032683 L297.454983,423.91904 L298.753408,426.032683 Z M300.887092,429.506034 L299.588689,427.392413 L300.887092,429.506034 Z M248.745616,346.994687 L250.855405,345.69389 L248.745616,346.994687 Z M260.339535,365.867934 L262.449324,364.567137 L260.339535,365.867934 Z M261.239293,367.3326 L263.34906,366.031826 L261.239293,367.3326 Z M264.761171,373.065729 L266.87096,371.764932 L264.761171,373.065729 Z M266.303588,375.576578 L268.413377,374.275781 L266.303588,375.576578 Z M272.730359,386.038459 L274.840147,384.737662 L272.730359,386.038459 Z M276.277955,391.813418 L278.387744,390.512643 L276.277955,391.813418 Z M277.383353,393.612883 L279.493142,392.312086 L277.383353,393.612883 Z M285.146924,406.250859 L287.25669,404.950062 L285.146924,406.250859 Z M290.108388,414.327426 L292.218177,413.026651 L290.108388,414.327426 Z M291.239505,416.168722 L293.349294,414.867925 L291.239505,416.168722 Z M292.293487,417.884482 L294.403276,416.583685 L292.293487,417.884482 Z M293.321773,419.558366 L295.431562,418.257592 L293.321773,419.558366 Z M175.445957,218.539211 L174.405131,229.817683 L175.445957,218.539211 Z M174.037163,233.804999 L168.589342,292.838009 L174.037163,233.804999 Z M167.46731,304.996427 L167.239249,307.467702 L167.46731,304.996427 Z M167.031577,309.718049 L166.803515,312.189348 L167.031577,309.718049 Z M166.61165,314.268426 L166.383587,316.739724 L166.61165,314.268426 Z M165.886934,322.121515 L165.65887,324.59279 L165.886934,322.121515 Z M165.08997,330.757442 L164.861909,333.22874 L165.08997,330.757442 Z M164.306555,339.246602 L164.078494,341.717878 L164.306555,339.246602 Z M163.859533,344.090557 L163.631472,346.561855 L163.859533,344.090557 Z M163.313174,350.010951 L163.085111,352.482249 L163.313174,350.010951 Z M162.701342,356.640812 L162.473281,359.11211 L162.701342,356.640812 Z M162.08951,363.270672 L161.861448,365.741947 L162.08951,363.270672 Z M161.662809,367.894443 L161.434746,370.365718 L161.662809,367.894443 Z M167.790572,288.014157 L170.257359,288.242621 L167.790572,288.014157 Z M166.995867,296.625627 L169.462657,296.854091 L166.995867,296.625627 Z M166.792676,298.82742 L169.259466,299.055885 L166.792676,298.82742 Z M166.603029,300.882425 L169.069819,301.110911 L166.603029,300.882425 Z M166.413384,302.937451 L168.880174,303.165916 L166.413384,302.937451 Z M164.963951,318.643607 L167.430741,318.872094 L164.963951,318.643607 Z M164.76076,320.8454 L167.22755,321.073864 L164.76076,320.8454 Z M164.241494,326.472193 L166.708283,326.70068 L164.241494,326.472193 Z M164.029274,328.771861 L166.496061,329.000325 L164.029274,328.771861 Z M163.442276,335.132601 L165.909063,335.361087 L163.442276,335.132601 Z M163.2436,337.285457 L165.710389,337.513943 L163.2436,337.285457 Z M162.263766,347.903016 L164.730553,348.131503 L162.263766,347.903016 Z M161.640644,354.655208 L164.107433,354.883695 L161.640644,354.655208 Z M161.03107,361.260611 L163.49786,361.489076 L161.03107,361.260611 Z M160.010597,372.318516 L162.477386,372.547003 L160.010597,372.318516 Z M159.825465,374.324606 L162.292255,374.553092 L159.825465,374.324606 Z M159.644851,376.281758 L162.111641,376.510245 L159.644851,376.281758 Z M175.571174,218.745587 L173.358324,221.426239 L175.571174,218.745587 Z M169.941856,225.564992 L168.363076,227.477539 L169.941856,225.564992 Z M165.919152,230.438119 L164.34037,232.350666 L165.919152,230.438119 Z M161.675416,235.579014 L160.096636,237.491561 L161.675416,235.579014 Z M156.282344,242.112219 L154.703564,244.024765 L156.282344,242.112219 Z M150.977682,248.538343 L149.398902,250.45089 L150.977682,248.538343 Z M147.927493,252.233366 L146.348711,254.145913 L147.927493,252.233366 Z M142.622831,258.659468 L141.044049,260.572015 L142.622831,258.659468 Z M137.185552,265.246234 L135.606772,267.158781 L137.185552,265.246234 Z M134.223774,268.834155 L132.644992,270.746702 L134.223774,268.834155 Z M130.112657,273.814385 L128.533875,275.726932 L130.112657,273.814385 Z M125.868921,278.95528 L124.290141,280.867827 L125.868921,278.95528 Z M122.907143,282.543201 L121.328363,284.455748 L122.907143,282.543201 Z M120.343216,285.649172 L118.764436,287.561719 L120.343216,285.649172 Z M117.779291,288.75512 L116.200509,290.667667 L117.779291,288.75512 Z M170.31979,223.160004 L172.228849,224.741655 L170.31979,223.160004 Z M166.252877,228.086694 L168.161939,229.668345 L166.252877,228.086694 Z M161.876526,233.388231 L163.785586,234.969904 L161.876526,233.388231 Z M157.898027,238.207819 L159.807086,239.789492 L157.898027,238.207819 Z M156.571865,239.814333 L158.480924,241.396006 L156.571865,239.814333 Z M152.681778,244.526818 L154.590837,246.108491 L152.681778,244.526818 Z M151.311409,246.186895 L153.220469,247.768568 L151.311409,246.186895 Z M144.194308,254.808608 L146.103367,256.390281 L144.194308,254.808608 Z M143.000763,256.25448 L144.909824,257.836153 L143.000763,256.25448 Z M138.889646,261.23471 L140.798708,262.816383 L138.889646,261.23471 Z M137.563484,262.841246 L139.472546,264.422897 L137.563484,262.841246 Z M130.623206,271.248755 L132.532268,272.830405 L130.623206,271.248755 Z M126.291059,276.496752 L128.200121,278.078403 L126.291059,276.496752 Z M114.355562,290.955492 L116.264622,292.537165 L114.355562,290.955492 Z M113.0294,292.562029 L114.93846,294.143679 L113.0294,292.562029 Z M175.060037,218.259824 L164.289114,218.923941 L175.060037,218.259824 Z M161.090233,219.121089 L118.629702,221.738905 L161.090233,219.121089 Z M125.40732,220.075941 L125.560167,222.553037 L125.40732,220.075941 Z M112.599493,220.040247 L115.071106,219.871641 L112.599493,220.040247 Z M108.58686,220.313746 L111.05839,220.145229 L108.58686,220.313746 Z M96.8914708,221.111159 L99.3630257,220.942688 L96.8914708,221.111159 Z M91.2149762,221.498235 L93.6866257,221.329741 L91.2149762,221.498235 Z M86.5173543,221.818527 L88.9888686,221.64992 L86.5173543,221.818527 Z M82.6024584,222.085482 L85.0740876,221.916966 L82.6024584,222.085482 Z M74.136872,222.662644 L76.6084246,222.49415 L74.136872,222.662644 Z M68.8029667,223.026323 L71.2745284,222.857784 L68.8029667,223.026323 Z M62.588189,223.449995 L65.0598317,223.281501 L62.588189,223.449995 Z M58.1840696,223.750297 L60.6557055,223.581826 L58.1840696,223.750297 Z M53.5842923,224.063843 L56.0558675,223.895394 L53.5842923,224.063843 Z M47.3206125,224.490922 L49.7922237,224.322495 L47.3206125,224.490922 Z M42.7696675,224.801264 L45.2412517,224.632792 L42.7696675,224.801264 Z M34.1571834,225.388534 L36.6287338,225.219949 L34.1571834,225.388534 Z M29.4594219,225.70878 L31.9310511,225.540286 L29.4594219,225.70878 Z M25.7892706,225.958949 L28.2609561,225.790478 L25.7892706,225.958949 Z M19.4277985,226.392729 L21.8993797,226.224212 L19.4277985,226.392729 Z M15.0236681,226.693008 L17.4952486,226.524514 L15.0236681,226.693008 Z M116.882929,218.504375 L117.051176,220.980479 L116.882929,218.504375 Z M106.508869,219.211631 L106.676976,221.687847 L106.508869,219.211631 Z M104.796107,219.32848 L104.964244,221.804606 L104.796107,219.32848 Z M102.985496,219.451917 L103.153759,221.927999 L102.985496,219.451917 Z M101.22385,219.572038 L101.392034,222.048165 L101.22385,219.572038 Z M94.9602395,219.999049 L95.1284263,222.475175 L94.9602395,219.999049 Z M80.3287504,220.996679 L80.4970025,223.472805 L80.3287504,220.996679 Z M78.3713745,221.130134 L78.5395726,223.606238 L78.3713745,221.130134 Z M72.352392,221.540517 L72.5206959,224.016666 L72.352392,221.540517 Z M66.1376998,221.964256 L66.3059519,224.440292 L66.1376998,221.964256 Z M51.652998,222.951778 L51.8212276,225.427837 L51.652998,222.951778 Z M41.4256958,223.649128 L41.5938804,226.125232 L41.4256958,223.649128 Z M39.712943,223.765933 L39.8811027,226.241991 L39.712943,223.765933 Z M37.7555671,223.899297 L37.9237448,226.375469 L37.7555671,223.899297 Z M23.1730431,224.893543 L23.3412659,227.369692 L23.1730431,224.893543 Z M175.060657,218.264878 L86.5704273,226.962355 L175.060657,218.264878 Z M81.7338373,227.432595 L79.2683563,227.67489 L81.7338373,227.432595 Z M74.118925,228.180981 L71.6534283,228.423321 L74.118925,228.180981 Z M69.8233388,228.603254 L67.3578826,228.845526 L69.8233388,228.603254 Z M60.2070829,229.548382 L57.7416132,229.790676 L60.2070829,229.548382 Z M56.0579439,229.95617 L53.5924787,230.198464 L56.0579439,229.95617 Z M51.469479,230.407209 L49.0040273,230.649482 L51.469479,230.407209 Z M47.6619676,230.78138 L45.1964709,231.023697 L47.6619676,230.78138 Z M43.1224115,231.227704 L40.6569193,231.469931 L43.1224115,231.227704 Z M37.4600129,231.784041 L34.9944959,232.026426 L37.4600129,231.784041 Z M31.1631033,232.403011 L28.6975165,232.645373 L31.1631033,232.403011 Z M24.5732271,233.050769 L22.1077394,233.293042 L24.5732271,233.050769 Z M20.6193091,233.439334 L18.1538194,233.681674 L20.6193091,233.439334 Z M16.470206,233.847122 L14.004677,234.089507 L16.470206,233.847122 Z M12.5651006,234.230972 L10.0996861,234.473289 L12.5651006,234.230972 Z M0,235.465956 L7.84965892,234.694421 L0,235.465956 Z M95.1876047,224.863377 L95.4294801,227.333299 L95.1876047,224.863377 Z M83.5901119,226.003194 L83.8320369,228.473206 L83.5901119,226.003194 Z M77.9294812,226.559576 L78.1713161,229.029588 L77.9294812,226.559576 Z M76.0655426,226.742803 L76.3074451,229.212815 L76.0655426,226.742803 Z M65.5036191,227.780909 L65.7454855,230.250989 L65.5036191,227.780909 Z M63.8467745,227.943785 L64.08865,230.413707 L63.8467745,227.943785 Z M62.0519124,228.120154 L62.2938306,230.590166 L62.0519124,228.120154 Z M39.4091956,230.345682 L39.6510508,232.815559 L39.4091956,230.345682 Z M33.1271927,230.96305 L33.3691559,233.433107 L33.1271927,230.96305 Z M26.7071563,231.594068 L26.9490791,234.064102 L26.7071563,231.594068 Z M4.13349545,233.812851 L4.37534927,236.282818 L4.13349545,233.812851 Z M175.177153,218.816319 L632.389422,217.713398 L175.177153,218.816319 Z M633,220.421593 L632.986938,215.002281 L633,220.421593 Z"></path>
        </g>
    </g>
</svg>
